<?xml version="1.0" encoding="UTF-8" standalone="no"?>
<!DOCTYPE svg PUBLIC "-//W3C//DTD SVG 1.1//EN"
 "http://www.w3.org/Graphics/SVG/1.1/DTD/svg11.dtd">
<!-- Generated by graphviz version 2.47.3 (20210619.1520)
 -->
<!-- Title: dependencies Pages: 1 -->
<svg width="10358pt" height="247pt"
 viewBox="0.00 0.00 10358.00 246.80" xmlns="http://www.w3.org/2000/svg" xmlns:xlink="http://www.w3.org/1999/xlink">
<g id="graph0" class="graph" transform="scale(1 1) rotate(0) translate(4 242.8)">
<title>dependencies</title>
<polygon fill="white" stroke="transparent" points="-4,4 -4,-242.8 10354,-242.8 10354,4 -4,4"/>
<text text-anchor="middle" x="5175" y="-8.2" font-family="sans-serif" font-size="14.00">dependencies</text>
<g id="clust1" class="cluster">
<title>cluster_AppModule</title>
<polygon fill="none" stroke="black" stroke-dasharray="1,5" points="8,-32.8 8,-230.8 10342,-230.8 10342,-32.8 8,-32.8"/>
</g>
<g id="clust57" class="cluster">
<title>cluster_AppModule_imports</title>
<polygon fill="none" stroke="black" points="10190,-40.8 10190,-92.8 10334,-92.8 10334,-40.8 10190,-40.8"/>
</g>
<g id="clust59" class="cluster">
<title>cluster_AppModule_bootstrap</title>
<polygon fill="none" stroke="black" points="5294,-170.8 5294,-222.8 5418,-222.8 5418,-170.8 5294,-170.8"/>
</g>
<g id="clust2" class="cluster">
<title>cluster_AppModule_declarations</title>
<polygon fill="none" stroke="black" points="16,-40.8 16,-92.8 10182,-92.8 10182,-40.8 16,-40.8"/>
</g>
<!-- AppComponent -->
<g id="node1" class="node">
<title>AppComponent</title>
<polygon fill="#ffffb3" stroke="black" points="10173.94,-84.8 10068.06,-84.8 10068.06,-48.8 10173.94,-48.8 10173.94,-84.8"/>
<text text-anchor="middle" x="10121" y="-62.6" font-family="Times,serif" font-size="14.00">AppComponent</text>
</g>
<!-- AppModule -->
<g id="node55" class="node">
<title>AppModule</title>
<polygon fill="#8dd3c7" stroke="black" points="5397.66,-149.8 5394.66,-153.8 5373.66,-153.8 5370.66,-149.8 5314.34,-149.8 5314.34,-113.8 5397.66,-113.8 5397.66,-149.8"/>
<text text-anchor="middle" x="5356" y="-127.6" font-family="Times,serif" font-size="14.00">AppModule</text>
</g>
<!-- AppComponent&#45;&gt;AppModule -->
<g id="edge1" class="edge">
<title>AppComponent&#45;&gt;AppModule</title>
<path fill="none" stroke="black" d="M10121,-85.18C10121,-109.08 10121,-147.8 10121,-147.8 10121,-147.8 5407.92,-147.8 5407.92,-147.8"/>
<polygon fill="black" stroke="black" points="5407.92,-144.3 5397.92,-147.8 5407.92,-151.3 5407.92,-144.3"/>
</g>
<!-- BreadcrumbsComponent -->
<g id="node2" class="node">
<title>BreadcrumbsComponent</title>
<polygon fill="#ffffb3" stroke="black" points="10049.97,-84.8 9894.03,-84.8 9894.03,-48.8 10049.97,-48.8 10049.97,-84.8"/>
<text text-anchor="middle" x="9972" y="-62.6" font-family="Times,serif" font-size="14.00">BreadcrumbsComponent</text>
</g>
<!-- BreadcrumbsComponent&#45;&gt;AppModule -->
<g id="edge2" class="edge">
<title>BreadcrumbsComponent&#45;&gt;AppModule</title>
<path fill="none" stroke="black" d="M9972,-84.95C9972,-108.56 9972,-146.8 9972,-146.8 9972,-146.8 5407.67,-146.8 5407.67,-146.8"/>
<polygon fill="black" stroke="black" points="5407.67,-143.3 5397.67,-146.8 5407.67,-150.3 5407.67,-143.3"/>
</g>
<!-- CarouselComponent -->
<g id="node3" class="node">
<title>CarouselComponent</title>
<polygon fill="#ffffb3" stroke="black" points="9875.59,-84.8 9744.41,-84.8 9744.41,-48.8 9875.59,-48.8 9875.59,-84.8"/>
<text text-anchor="middle" x="9810" y="-62.6" font-family="Times,serif" font-size="14.00">CarouselComponent</text>
</g>
<!-- CarouselComponent&#45;&gt;AppModule -->
<g id="edge3" class="edge">
<title>CarouselComponent&#45;&gt;AppModule</title>
<path fill="none" stroke="black" d="M9810,-84.89C9810,-107.93 9810,-144.8 9810,-144.8 9810,-144.8 5407.95,-144.8 5407.95,-144.8"/>
<polygon fill="black" stroke="black" points="5407.95,-141.3 5397.95,-144.8 5407.95,-148.3 5407.95,-141.3"/>
</g>
<!-- CheckboxNotificacionesComponent -->
<g id="node4" class="node">
<title>CheckboxNotificacionesComponent</title>
<polygon fill="#ffffb3" stroke="black" points="9726.73,-84.8 9507.27,-84.8 9507.27,-48.8 9726.73,-48.8 9726.73,-84.8"/>
<text text-anchor="middle" x="9617" y="-62.6" font-family="Times,serif" font-size="14.00">CheckboxNotificacionesComponent</text>
</g>
<!-- CheckboxNotificacionesComponent&#45;&gt;AppModule -->
<g id="edge4" class="edge">
<title>CheckboxNotificacionesComponent&#45;&gt;AppModule</title>
<path fill="none" stroke="black" d="M9617,-85.05C9617,-107.82 9617,-143.8 9617,-143.8 9617,-143.8 5407.83,-143.8 5407.83,-143.8"/>
<polygon fill="black" stroke="black" points="5407.83,-140.3 5397.83,-143.8 5407.83,-147.3 5407.83,-140.3"/>
</g>
<!-- Code404Component -->
<g id="node5" class="node">
<title>Code404Component</title>
<polygon fill="#ffffb3" stroke="black" points="9488.88,-84.8 9357.12,-84.8 9357.12,-48.8 9488.88,-48.8 9488.88,-84.8"/>
<text text-anchor="middle" x="9423" y="-62.6" font-family="Times,serif" font-size="14.00">Code404Component</text>
</g>
<!-- Code404Component&#45;&gt;AppModule -->
<g id="edge5" class="edge">
<title>Code404Component&#45;&gt;AppModule</title>
<path fill="none" stroke="black" d="M9423,-84.81C9423,-107.29 9423,-142.8 9423,-142.8 9423,-142.8 5407.91,-142.8 5407.91,-142.8"/>
<polygon fill="black" stroke="black" points="5407.91,-139.3 5397.91,-142.8 5407.91,-146.3 5407.91,-139.3"/>
</g>
<!-- ComoParticiparEstudiantesComponent -->
<g id="node6" class="node">
<title>ComoParticiparEstudiantesComponent</title>
<polygon fill="#ffffb3" stroke="black" points="9339.02,-84.8 9104.98,-84.8 9104.98,-48.8 9339.02,-48.8 9339.02,-84.8"/>
<text text-anchor="middle" x="9222" y="-62.6" font-family="Times,serif" font-size="14.00">ComoParticiparEstudiantesComponent</text>
</g>
<!-- ComoParticiparEstudiantesComponent&#45;&gt;AppModule -->
<g id="edge6" class="edge">
<title>ComoParticiparEstudiantesComponent&#45;&gt;AppModule</title>
<path fill="none" stroke="black" d="M9222,-85.09C9222,-107.01 9222,-140.8 9222,-140.8 9222,-140.8 5407.77,-140.8 5407.77,-140.8"/>
<polygon fill="black" stroke="black" points="5407.77,-137.3 5397.77,-140.8 5407.77,-144.3 5407.77,-137.3"/>
</g>
<!-- ComoParticiparProfesoresComponent -->
<g id="node7" class="node">
<title>ComoParticiparProfesoresComponent</title>
<polygon fill="#ffffb3" stroke="black" points="9086.56,-84.8 8857.44,-84.8 8857.44,-48.8 9086.56,-48.8 9086.56,-84.8"/>
<text text-anchor="middle" x="8972" y="-62.6" font-family="Times,serif" font-size="14.00">ComoParticiparProfesoresComponent</text>
</g>
<!-- ComoParticiparProfesoresComponent&#45;&gt;AppModule -->
<g id="edge7" class="edge">
<title>ComoParticiparProfesoresComponent&#45;&gt;AppModule</title>
<path fill="none" stroke="black" d="M8972,-84.84C8972,-106.46 8972,-139.8 8972,-139.8 8972,-139.8 5407.86,-139.8 5407.86,-139.8"/>
<polygon fill="black" stroke="black" points="5407.86,-136.3 5397.86,-139.8 5407.86,-143.3 5407.86,-136.3"/>
</g>
<!-- ComoParticiparSociosComunitariosComponent -->
<g id="node8" class="node">
<title>ComoParticiparSociosComunitariosComponent</title>
<polygon fill="#ffffb3" stroke="black" points="8839.53,-84.8 8556.47,-84.8 8556.47,-48.8 8839.53,-48.8 8839.53,-84.8"/>
<text text-anchor="middle" x="8698" y="-62.6" font-family="Times,serif" font-size="14.00">ComoParticiparSociosComunitariosComponent</text>
</g>
<!-- ComoParticiparSociosComunitariosComponent&#45;&gt;AppModule -->
<g id="edge8" class="edge">
<title>ComoParticiparSociosComunitariosComponent&#45;&gt;AppModule</title>
<path fill="none" stroke="black" d="M8698,-84.97C8698,-106.3 8698,-138.8 8698,-138.8 8698,-138.8 5407.95,-138.8 5407.95,-138.8"/>
<polygon fill="black" stroke="black" points="5407.95,-135.3 5397.95,-138.8 5407.95,-142.3 5407.95,-135.3"/>
</g>
<!-- CondicionesComponent -->
<g id="node9" class="node">
<title>CondicionesComponent</title>
<polygon fill="#ffffb3" stroke="black" points="8538.82,-84.8 8387.18,-84.8 8387.18,-48.8 8538.82,-48.8 8538.82,-84.8"/>
<text text-anchor="middle" x="8463" y="-62.6" font-family="Times,serif" font-size="14.00">CondicionesComponent</text>
</g>
<!-- CondicionesComponent&#45;&gt;AppModule -->
<g id="edge9" class="edge">
<title>CondicionesComponent&#45;&gt;AppModule</title>
<path fill="none" stroke="black" d="M8463,-85.08C8463,-106.12 8463,-137.8 8463,-137.8 8463,-137.8 5407.86,-137.8 5407.86,-137.8"/>
<polygon fill="black" stroke="black" points="5407.86,-134.3 5397.86,-137.8 5407.86,-141.3 5407.86,-134.3"/>
</g>
<!-- DemandasComponent -->
<g id="node10" class="node">
<title>DemandasComponent</title>
<polygon fill="#ffffb3" stroke="black" points="8369.42,-84.8 8228.58,-84.8 8228.58,-48.8 8369.42,-48.8 8369.42,-84.8"/>
<text text-anchor="middle" x="8299" y="-62.6" font-family="Times,serif" font-size="14.00">DemandasComponent</text>
</g>
<!-- DemandasComponent&#45;&gt;AppModule -->
<g id="edge10" class="edge">
<title>DemandasComponent&#45;&gt;AppModule</title>
<path fill="none" stroke="black" d="M8299,-84.93C8299,-105.37 8299,-135.8 8299,-135.8 8299,-135.8 5407.89,-135.8 5407.89,-135.8"/>
<polygon fill="black" stroke="black" points="5407.89,-132.3 5397.89,-135.8 5407.89,-139.3 5407.89,-132.3"/>
</g>
<!-- DemandasVerComponent -->
<g id="node11" class="node">
<title>DemandasVerComponent</title>
<polygon fill="#ffffb3" stroke="black" points="8210.9,-84.8 8049.1,-84.8 8049.1,-48.8 8210.9,-48.8 8210.9,-84.8"/>
<text text-anchor="middle" x="8130" y="-62.6" font-family="Times,serif" font-size="14.00">DemandasVerComponent</text>
</g>
<!-- DemandasVerComponent&#45;&gt;AppModule -->
<g id="edge11" class="edge">
<title>DemandasVerComponent&#45;&gt;AppModule</title>
<path fill="none" stroke="black" d="M8130,-85.02C8130,-105.17 8130,-134.8 8130,-134.8 8130,-134.8 5407.91,-134.8 5407.91,-134.8"/>
<polygon fill="black" stroke="black" points="5407.91,-131.3 5397.91,-134.8 5407.91,-138.3 5407.91,-131.3"/>
</g>
<!-- FaqComponent -->
<g id="node12" class="node">
<title>FaqComponent</title>
<polygon fill="#ffffb3" stroke="black" points="8031.33,-84.8 7928.67,-84.8 7928.67,-48.8 8031.33,-48.8 8031.33,-84.8"/>
<text text-anchor="middle" x="7980" y="-62.6" font-family="Times,serif" font-size="14.00">FaqComponent</text>
</g>
<!-- FaqComponent&#45;&gt;AppModule -->
<g id="edge12" class="edge">
<title>FaqComponent&#45;&gt;AppModule</title>
<path fill="none" stroke="black" d="M7980,-85.11C7980,-104.95 7980,-133.8 7980,-133.8 7980,-133.8 5407.75,-133.8 5407.75,-133.8"/>
<polygon fill="black" stroke="black" points="5407.75,-130.3 5397.75,-133.8 5407.75,-137.3 5407.75,-130.3"/>
</g>
<!-- FooterComponent -->
<g id="node13" class="node">
<title>FooterComponent</title>
<polygon fill="#ffffb3" stroke="black" points="7910.88,-84.8 7793.12,-84.8 7793.12,-48.8 7910.88,-48.8 7910.88,-84.8"/>
<text text-anchor="middle" x="7852" y="-62.6" font-family="Times,serif" font-size="14.00">FooterComponent</text>
</g>
<!-- FooterComponent&#45;&gt;AppModule -->
<g id="edge13" class="edge">
<title>FooterComponent&#45;&gt;AppModule</title>
<path fill="none" stroke="black" d="M7852,-84.91C7852,-104.14 7852,-131.8 7852,-131.8 7852,-131.8 5407.76,-131.8 5407.76,-131.8"/>
<polygon fill="black" stroke="black" points="5407.76,-128.3 5397.76,-131.8 5407.76,-135.3 5407.76,-128.3"/>
</g>
<!-- GestionUsuariosComponent -->
<g id="node14" class="node">
<title>GestionUsuariosComponent</title>
<polygon fill="#ffffb3" stroke="black" points="7775.14,-84.8 7600.86,-84.8 7600.86,-48.8 7775.14,-48.8 7775.14,-84.8"/>
<text text-anchor="middle" x="7688" y="-62.6" font-family="Times,serif" font-size="14.00">GestionUsuariosComponent</text>
</g>
<!-- GestionUsuariosComponent&#45;&gt;AppModule -->
<g id="edge14" class="edge">
<title>GestionUsuariosComponent&#45;&gt;AppModule</title>
<path fill="none" stroke="black" d="M7688,-84.97C7688,-103.89 7688,-130.8 7688,-130.8 7688,-130.8 5407.97,-130.8 5407.97,-130.8"/>
<polygon fill="black" stroke="black" points="5407.97,-127.3 5397.97,-130.8 5407.97,-134.3 5407.97,-127.3"/>
</g>
<!-- GestionUsuariosEditarComponent -->
<g id="node15" class="node">
<title>GestionUsuariosEditarComponent</title>
<polygon fill="#ffffb3" stroke="black" points="7582.35,-84.8 7373.65,-84.8 7373.65,-48.8 7582.35,-48.8 7582.35,-84.8"/>
<text text-anchor="middle" x="7478" y="-62.6" font-family="Times,serif" font-size="14.00">GestionUsuariosEditarComponent</text>
</g>
<!-- GestionUsuariosEditarComponent&#45;&gt;AppModule -->
<g id="edge15" class="edge">
<title>GestionUsuariosEditarComponent&#45;&gt;AppModule</title>
<path fill="none" stroke="black" d="M7478,-85.02C7478,-103.63 7478,-129.8 7478,-129.8 7478,-129.8 5407.91,-129.8 5407.91,-129.8"/>
<polygon fill="black" stroke="black" points="5407.91,-126.3 5397.91,-129.8 5407.91,-133.3 5407.91,-126.3"/>
</g>
<!-- GestorEmailsComponent -->
<g id="node16" class="node">
<title>GestorEmailsComponent</title>
<polygon fill="#ffffb3" stroke="black" points="7355.53,-84.8 7198.47,-84.8 7198.47,-48.8 7355.53,-48.8 7355.53,-84.8"/>
<text text-anchor="middle" x="7277" y="-62.6" font-family="Times,serif" font-size="14.00">GestorEmailsComponent</text>
</g>
<!-- GestorEmailsComponent&#45;&gt;AppModule -->
<g id="edge16" class="edge">
<title>GestorEmailsComponent&#45;&gt;AppModule</title>
<path fill="none" stroke="black" d="M7277,-85.07C7277,-103.36 7277,-128.8 7277,-128.8 7277,-128.8 5407.91,-128.8 5407.91,-128.8"/>
<polygon fill="black" stroke="black" points="5407.91,-125.3 5397.91,-128.8 5407.91,-132.3 5407.91,-125.3"/>
</g>
<!-- GestorNewsletterComponent -->
<g id="node17" class="node">
<title>GestorNewsletterComponent</title>
<polygon fill="#ffffb3" stroke="black" points="7180.78,-84.8 7001.22,-84.8 7001.22,-48.8 7180.78,-48.8 7180.78,-84.8"/>
<text text-anchor="middle" x="7091" y="-62.6" font-family="Times,serif" font-size="14.00">GestorNewsletterComponent</text>
</g>
<!-- GestorNewsletterComponent&#45;&gt;AppModule -->
<g id="edge17" class="edge">
<title>GestorNewsletterComponent&#45;&gt;AppModule</title>
<path fill="none" stroke="black" d="M7091,-84.8C7091,-102.48 7091,-126.8 7091,-126.8 7091,-126.8 5408.03,-126.8 5408.03,-126.8"/>
<polygon fill="black" stroke="black" points="5408.03,-123.3 5398.03,-126.8 5408.03,-130.3 5408.03,-123.3"/>
</g>
<!-- HomeComponent -->
<g id="node18" class="node">
<title>HomeComponent</title>
<polygon fill="#ffffb3" stroke="black" points="6983.55,-84.8 6868.45,-84.8 6868.45,-48.8 6983.55,-48.8 6983.55,-84.8"/>
<text text-anchor="middle" x="6926" y="-62.6" font-family="Times,serif" font-size="14.00">HomeComponent</text>
</g>
<!-- HomeComponent&#45;&gt;AppModule -->
<g id="edge18" class="edge">
<title>HomeComponent&#45;&gt;AppModule</title>
<path fill="none" stroke="black" d="M6926,-84.82C6926,-102.17 6926,-125.8 6926,-125.8 6926,-125.8 5407.99,-125.8 5407.99,-125.8"/>
<polygon fill="black" stroke="black" points="5407.99,-122.3 5397.99,-125.8 5407.99,-129.3 5407.99,-122.3"/>
</g>
<!-- IniciativaRespaldadaComponent -->
<g id="node19" class="node">
<title>IniciativaRespaldadaComponent</title>
<polygon fill="#ffffb3" stroke="black" points="6850.23,-84.8 6651.77,-84.8 6651.77,-48.8 6850.23,-48.8 6850.23,-84.8"/>
<text text-anchor="middle" x="6751" y="-62.6" font-family="Times,serif" font-size="14.00">IniciativaRespaldadaComponent</text>
</g>
<!-- IniciativaRespaldadaComponent&#45;&gt;AppModule -->
<g id="edge19" class="edge">
<title>IniciativaRespaldadaComponent&#45;&gt;AppModule</title>
<path fill="none" stroke="black" d="M6751,-84.83C6751,-101.86 6751,-124.8 6751,-124.8 6751,-124.8 5407.75,-124.8 5407.75,-124.8"/>
<polygon fill="black" stroke="black" points="5407.75,-121.3 5397.75,-124.8 5407.75,-128.3 5407.75,-121.3"/>
</g>
<!-- IniciativasComponent -->
<g id="node20" class="node">
<title>IniciativasComponent</title>
<polygon fill="#ffffb3" stroke="black" points="6633.64,-84.8 6494.36,-84.8 6494.36,-48.8 6633.64,-48.8 6633.64,-84.8"/>
<text text-anchor="middle" x="6564" y="-62.6" font-family="Times,serif" font-size="14.00">IniciativasComponent</text>
</g>
<!-- IniciativasComponent&#45;&gt;AppModule -->
<g id="edge20" class="edge">
<title>IniciativasComponent&#45;&gt;AppModule</title>
<path fill="none" stroke="black" d="M6564,-84.83C6564,-101.2 6564,-122.8 6564,-122.8 6564,-122.8 5407.93,-122.8 5407.93,-122.8"/>
<polygon fill="black" stroke="black" points="5407.93,-119.3 5397.93,-122.8 5407.93,-126.3 5407.93,-119.3"/>
</g>
<!-- IniciativasCrearComponent -->
<g id="node21" class="node">
<title>IniciativasCrearComponent</title>
<polygon fill="#ffffb3" stroke="black" points="6476.23,-84.8 6305.77,-84.8 6305.77,-48.8 6476.23,-48.8 6476.23,-84.8"/>
<text text-anchor="middle" x="6391" y="-62.6" font-family="Times,serif" font-size="14.00">IniciativasCrearComponent</text>
</g>
<!-- IniciativasCrearComponent&#45;&gt;AppModule -->
<g id="edge21" class="edge">
<title>IniciativasCrearComponent&#45;&gt;AppModule</title>
<path fill="none" stroke="black" d="M6391,-84.81C6391,-100.85 6391,-121.8 6391,-121.8 6391,-121.8 5407.86,-121.8 5407.86,-121.8"/>
<polygon fill="black" stroke="black" points="5407.86,-118.3 5397.86,-121.8 5407.86,-125.3 5407.86,-118.3"/>
</g>
<!-- IniciativasEditarComponent -->
<g id="node22" class="node">
<title>IniciativasEditarComponent</title>
<polygon fill="#ffffb3" stroke="black" points="6287.85,-84.8 6114.15,-84.8 6114.15,-48.8 6287.85,-48.8 6287.85,-84.8"/>
<text text-anchor="middle" x="6201" y="-62.6" font-family="Times,serif" font-size="14.00">IniciativasEditarComponent</text>
</g>
<!-- IniciativasEditarComponent&#45;&gt;AppModule -->
<g id="edge22" class="edge">
<title>IniciativasEditarComponent&#45;&gt;AppModule</title>
<path fill="none" stroke="black" d="M6201,-85.08C6201,-100.75 6201,-120.8 6201,-120.8 6201,-120.8 5407.9,-120.8 5407.9,-120.8"/>
<polygon fill="black" stroke="black" points="5407.9,-117.3 5397.9,-120.8 5407.9,-124.3 5407.9,-117.3"/>
</g>
<!-- IniciativasVerComponent -->
<g id="node23" class="node">
<title>IniciativasVerComponent</title>
<polygon fill="#ffffb3" stroke="black" points="6096.13,-84.8 5935.87,-84.8 5935.87,-48.8 6096.13,-48.8 6096.13,-84.8"/>
<text text-anchor="middle" x="6016" y="-62.6" font-family="Times,serif" font-size="14.00">IniciativasVerComponent</text>
</g>
<!-- IniciativasVerComponent&#45;&gt;AppModule -->
<g id="edge23" class="edge">
<title>IniciativasVerComponent&#45;&gt;AppModule</title>
<path fill="none" stroke="black" d="M6016,-85.04C6016,-100.37 6016,-119.8 6016,-119.8 6016,-119.8 5407.79,-119.8 5407.79,-119.8"/>
<polygon fill="black" stroke="black" points="5407.79,-116.3 5397.79,-119.8 5407.79,-123.3 5407.79,-116.3"/>
</g>
<!-- LoginComponent -->
<g id="node24" class="node">
<title>LoginComponent</title>
<polygon fill="#ffffb3" stroke="black" points="5917.28,-84.8 5802.72,-84.8 5802.72,-48.8 5917.28,-48.8 5917.28,-84.8"/>
<text text-anchor="middle" x="5860" y="-62.6" font-family="Times,serif" font-size="14.00">LoginComponent</text>
</g>
<!-- LoginComponent&#45;&gt;AppModule -->
<g id="edge24" class="edge">
<title>LoginComponent&#45;&gt;AppModule</title>
<path fill="none" stroke="black" d="M5860,-84.92C5860,-99.58 5860,-117.8 5860,-117.8 5860,-117.8 5407.67,-117.8 5407.67,-117.8"/>
<polygon fill="black" stroke="black" points="5407.67,-114.3 5397.67,-117.8 5407.67,-121.3 5407.67,-114.3"/>
</g>
<!-- NavbarComponent -->
<g id="node25" class="node">
<title>NavbarComponent</title>
<polygon fill="#ffffb3" stroke="black" points="5784.03,-84.8 5661.97,-84.8 5661.97,-48.8 5784.03,-48.8 5784.03,-84.8"/>
<text text-anchor="middle" x="5723" y="-62.6" font-family="Times,serif" font-size="14.00">NavbarComponent</text>
</g>
<!-- NavbarComponent&#45;&gt;AppModule -->
<g id="edge25" class="edge">
<title>NavbarComponent&#45;&gt;AppModule</title>
<path fill="none" stroke="black" d="M5723,-84.85C5723,-99.17 5723,-116.8 5723,-116.8 5723,-116.8 5407.74,-116.8 5407.74,-116.8"/>
<polygon fill="black" stroke="black" points="5407.74,-113.3 5397.74,-116.8 5407.74,-120.3 5407.74,-113.3"/>
</g>
<!-- NewsletterSubscribeComponent -->
<g id="node26" class="node">
<title>NewsletterSubscribeComponent</title>
<polygon fill="#ffffb3" stroke="black" points="5643.67,-84.8 5446.33,-84.8 5446.33,-48.8 5643.67,-48.8 5643.67,-84.8"/>
<text text-anchor="middle" x="5545" y="-62.6" font-family="Times,serif" font-size="14.00">NewsletterSubscribeComponent</text>
</g>
<!-- NewsletterSubscribeComponent&#45;&gt;AppModule -->
<g id="edge26" class="edge">
<title>NewsletterSubscribeComponent&#45;&gt;AppModule</title>
<path fill="none" stroke="black" d="M5545,-85.05C5545,-98.98 5545,-115.8 5545,-115.8 5545,-115.8 5407.95,-115.8 5407.95,-115.8"/>
<polygon fill="black" stroke="black" points="5407.95,-112.3 5397.95,-115.8 5407.95,-119.3 5407.95,-112.3"/>
</g>
<!-- OfertaCardComponent -->
<g id="node27" class="node">
<title>OfertaCardComponent</title>
<polygon fill="#ffffb3" stroke="black" points="5428.29,-84.8 5283.71,-84.8 5283.71,-48.8 5428.29,-48.8 5428.29,-84.8"/>
<text text-anchor="middle" x="5356" y="-62.6" font-family="Times,serif" font-size="14.00">OfertaCardComponent</text>
</g>
<!-- OfertaCardComponent&#45;&gt;AppModule -->
<g id="edge27" class="edge">
<title>OfertaCardComponent&#45;&gt;AppModule</title>
<path fill="none" stroke="black" d="M5356,-84.91C5356,-84.91 5356,-103.79 5356,-103.79"/>
<polygon fill="black" stroke="black" points="5352.5,-103.79 5356,-113.79 5359.5,-103.79 5352.5,-103.79"/>
</g>
<!-- OfertasComponent -->
<g id="node28" class="node">
<title>OfertasComponent</title>
<polygon fill="#ffffb3" stroke="black" points="5266.03,-84.8 5143.97,-84.8 5143.97,-48.8 5266.03,-48.8 5266.03,-84.8"/>
<text text-anchor="middle" x="5205" y="-62.6" font-family="Times,serif" font-size="14.00">OfertasComponent</text>
</g>
<!-- OfertasComponent&#45;&gt;AppModule -->
<g id="edge28" class="edge">
<title>OfertasComponent&#45;&gt;AppModule</title>
<path fill="none" stroke="black" d="M5205,-85.05C5205,-98.98 5205,-115.8 5205,-115.8 5205,-115.8 5304.34,-115.8 5304.34,-115.8"/>
<polygon fill="black" stroke="black" points="5304.34,-119.3 5314.34,-115.8 5304.34,-112.3 5304.34,-119.3"/>
</g>
<!-- OfertasCrearComponent -->
<g id="node29" class="node">
<title>OfertasCrearComponent</title>
<polygon fill="#ffffb3" stroke="black" points="5125.61,-84.8 4972.39,-84.8 4972.39,-48.8 5125.61,-48.8 5125.61,-84.8"/>
<text text-anchor="middle" x="5049" y="-62.6" font-family="Times,serif" font-size="14.00">OfertasCrearComponent</text>
</g>
<!-- OfertasCrearComponent&#45;&gt;AppModule -->
<g id="edge29" class="edge">
<title>OfertasCrearComponent&#45;&gt;AppModule</title>
<path fill="none" stroke="black" d="M5049,-84.85C5049,-99.17 5049,-116.8 5049,-116.8 5049,-116.8 5304.28,-116.8 5304.28,-116.8"/>
<polygon fill="black" stroke="black" points="5304.28,-120.3 5314.28,-116.8 5304.28,-113.3 5304.28,-120.3"/>
</g>
<!-- OfertasVerComponent -->
<g id="node30" class="node">
<title>OfertasVerComponent</title>
<polygon fill="#ffffb3" stroke="black" points="4953.51,-84.8 4810.49,-84.8 4810.49,-48.8 4953.51,-48.8 4953.51,-84.8"/>
<text text-anchor="middle" x="4882" y="-62.6" font-family="Times,serif" font-size="14.00">OfertasVerComponent</text>
</g>
<!-- OfertasVerComponent&#45;&gt;AppModule -->
<g id="edge30" class="edge">
<title>OfertasVerComponent&#45;&gt;AppModule</title>
<path fill="none" stroke="black" d="M4882,-84.92C4882,-99.58 4882,-117.8 4882,-117.8 4882,-117.8 5303.94,-117.8 5303.94,-117.8"/>
<polygon fill="black" stroke="black" points="5303.94,-121.3 5313.94,-117.8 5303.94,-114.3 5303.94,-121.3"/>
</g>
<!-- PartenariadoCrearProfesorComponent -->
<g id="node31" class="node">
<title>PartenariadoCrearProfesorComponent</title>
<polygon fill="#ffffb3" stroke="black" points="4792.09,-84.8 4561.91,-84.8 4561.91,-48.8 4792.09,-48.8 4792.09,-84.8"/>
<text text-anchor="middle" x="4677" y="-62.6" font-family="Times,serif" font-size="14.00">PartenariadoCrearProfesorComponent</text>
</g>
<!-- PartenariadoCrearProfesorComponent&#45;&gt;AppModule -->
<g id="edge31" class="edge">
<title>PartenariadoCrearProfesorComponent&#45;&gt;AppModule</title>
<path fill="none" stroke="black" d="M4677,-85.04C4677,-100.37 4677,-119.8 4677,-119.8 4677,-119.8 5304.29,-119.8 5304.29,-119.8"/>
<polygon fill="black" stroke="black" points="5304.29,-123.3 5314.29,-119.8 5304.29,-116.3 5304.29,-123.3"/>
</g>
<!-- PartenariadosCardComponent -->
<g id="node32" class="node">
<title>PartenariadosCardComponent</title>
<polygon fill="#ffffb3" stroke="black" points="4543.23,-84.8 4358.77,-84.8 4358.77,-48.8 4543.23,-48.8 4543.23,-84.8"/>
<text text-anchor="middle" x="4451" y="-62.6" font-family="Times,serif" font-size="14.00">PartenariadosCardComponent</text>
</g>
<!-- PartenariadosCardComponent&#45;&gt;AppModule -->
<g id="edge32" class="edge">
<title>PartenariadosCardComponent&#45;&gt;AppModule</title>
<path fill="none" stroke="black" d="M4451,-85.08C4451,-100.75 4451,-120.8 4451,-120.8 4451,-120.8 5304.17,-120.8 5304.17,-120.8"/>
<polygon fill="black" stroke="black" points="5304.17,-124.3 5314.17,-120.8 5304.16,-117.3 5304.17,-124.3"/>
</g>
<!-- PartenariadosComponent -->
<g id="node33" class="node">
<title>PartenariadosComponent</title>
<polygon fill="#ffffb3" stroke="black" points="4340.52,-84.8 4183.48,-84.8 4183.48,-48.8 4340.52,-48.8 4340.52,-84.8"/>
<text text-anchor="middle" x="4262" y="-62.6" font-family="Times,serif" font-size="14.00">PartenariadosComponent</text>
</g>
<!-- PartenariadosComponent&#45;&gt;AppModule -->
<g id="edge33" class="edge">
<title>PartenariadosComponent&#45;&gt;AppModule</title>
<path fill="none" stroke="black" d="M4262,-84.81C4262,-100.85 4262,-121.8 4262,-121.8 4262,-121.8 5304.12,-121.8 5304.12,-121.8"/>
<polygon fill="black" stroke="black" points="5304.12,-125.3 5314.12,-121.8 5304.12,-118.3 5304.12,-125.3"/>
</g>
<!-- PartenariadosVerComponent -->
<g id="node34" class="node">
<title>PartenariadosVerComponent</title>
<polygon fill="#ffffb3" stroke="black" points="4165,-84.8 3987,-84.8 3987,-48.8 4165,-48.8 4165,-84.8"/>
<text text-anchor="middle" x="4076" y="-62.6" font-family="Times,serif" font-size="14.00">PartenariadosVerComponent</text>
</g>
<!-- PartenariadosVerComponent&#45;&gt;AppModule -->
<g id="edge34" class="edge">
<title>PartenariadosVerComponent&#45;&gt;AppModule</title>
<path fill="none" stroke="black" d="M4076,-84.83C4076,-101.2 4076,-122.8 4076,-122.8 4076,-122.8 5304.14,-122.8 5304.14,-122.8"/>
<polygon fill="black" stroke="black" points="5304.14,-126.3 5314.14,-122.8 5304.14,-119.3 5304.14,-126.3"/>
</g>
<!-- ProfileComponent -->
<g id="node35" class="node">
<title>ProfileComponent</title>
<polygon fill="#ffffb3" stroke="black" points="3968.93,-84.8 3849.07,-84.8 3849.07,-48.8 3968.93,-48.8 3968.93,-84.8"/>
<text text-anchor="middle" x="3909" y="-62.6" font-family="Times,serif" font-size="14.00">ProfileComponent</text>
</g>
<!-- ProfileComponent&#45;&gt;AppModule -->
<g id="edge35" class="edge">
<title>ProfileComponent&#45;&gt;AppModule</title>
<path fill="none" stroke="black" d="M3909,-84.83C3909,-101.86 3909,-124.8 3909,-124.8 3909,-124.8 5304.25,-124.8 5304.25,-124.8"/>
<polygon fill="black" stroke="black" points="5304.25,-128.3 5314.25,-124.8 5304.25,-121.3 5304.25,-128.3"/>
</g>
<!-- ProyectosCardComponent -->
<g id="node36" class="node">
<title>ProyectosCardComponent</title>
<polygon fill="#ffffb3" stroke="black" points="3830.75,-84.8 3667.25,-84.8 3667.25,-48.8 3830.75,-48.8 3830.75,-84.8"/>
<text text-anchor="middle" x="3749" y="-62.6" font-family="Times,serif" font-size="14.00">ProyectosCardComponent</text>
</g>
<!-- ProyectosCardComponent&#45;&gt;AppModule -->
<g id="edge36" class="edge">
<title>ProyectosCardComponent&#45;&gt;AppModule</title>
<path fill="none" stroke="black" d="M3749,-84.82C3749,-102.17 3749,-125.8 3749,-125.8 3749,-125.8 5304.25,-125.8 5304.25,-125.8"/>
<polygon fill="black" stroke="black" points="5304.25,-129.3 5314.25,-125.8 5304.25,-122.3 5304.25,-129.3"/>
</g>
<!-- ProyectosComponent -->
<g id="node37" class="node">
<title>ProyectosComponent</title>
<polygon fill="#ffffb3" stroke="black" points="3649.04,-84.8 3512.96,-84.8 3512.96,-48.8 3649.04,-48.8 3649.04,-84.8"/>
<text text-anchor="middle" x="3581" y="-62.6" font-family="Times,serif" font-size="14.00">ProyectosComponent</text>
</g>
<!-- ProyectosComponent&#45;&gt;AppModule -->
<g id="edge37" class="edge">
<title>ProyectosComponent&#45;&gt;AppModule</title>
<path fill="none" stroke="black" d="M3581,-84.8C3581,-102.48 3581,-126.8 3581,-126.8 3581,-126.8 5304.31,-126.8 5304.31,-126.8"/>
<polygon fill="black" stroke="black" points="5304.31,-130.3 5314.31,-126.8 5304.31,-123.3 5304.31,-130.3"/>
</g>
<!-- ProyectosVerComponent -->
<g id="node38" class="node">
<title>ProyectosVerComponent</title>
<polygon fill="#ffffb3" stroke="black" points="3494.52,-84.8 3337.48,-84.8 3337.48,-48.8 3494.52,-48.8 3494.52,-84.8"/>
<text text-anchor="middle" x="3416" y="-62.6" font-family="Times,serif" font-size="14.00">ProyectosVerComponent</text>
</g>
<!-- ProyectosVerComponent&#45;&gt;AppModule -->
<g id="edge38" class="edge">
<title>ProyectosVerComponent&#45;&gt;AppModule</title>
<path fill="none" stroke="black" d="M3416,-85.07C3416,-103.36 3416,-128.8 3416,-128.8 3416,-128.8 5304.13,-128.8 5304.13,-128.8"/>
<polygon fill="black" stroke="black" points="5304.13,-132.3 5314.13,-128.8 5304.13,-125.3 5304.13,-132.3"/>
</g>
<!-- QueEsApsComponent -->
<g id="node39" class="node">
<title>QueEsApsComponent</title>
<polygon fill="#ffffb3" stroke="black" points="3319.7,-84.8 3178.3,-84.8 3178.3,-48.8 3319.7,-48.8 3319.7,-84.8"/>
<text text-anchor="middle" x="3249" y="-62.6" font-family="Times,serif" font-size="14.00">QueEsApsComponent</text>
</g>
<!-- QueEsApsComponent&#45;&gt;AppModule -->
<g id="edge39" class="edge">
<title>QueEsApsComponent&#45;&gt;AppModule</title>
<path fill="none" stroke="black" d="M3249,-85.02C3249,-103.63 3249,-129.8 3249,-129.8 3249,-129.8 5303.91,-129.8 5303.91,-129.8"/>
<polygon fill="black" stroke="black" points="5303.91,-133.3 5313.91,-129.8 5303.91,-126.3 5303.91,-133.3"/>
</g>
<!-- RegisterComponent -->
<g id="node40" class="node">
<title>RegisterComponent</title>
<polygon fill="#ffffb3" stroke="black" points="3159.98,-84.8 3032.02,-84.8 3032.02,-48.8 3159.98,-48.8 3159.98,-84.8"/>
<text text-anchor="middle" x="3096" y="-62.6" font-family="Times,serif" font-size="14.00">RegisterComponent</text>
</g>
<!-- RegisterComponent&#45;&gt;AppModule -->
<g id="edge40" class="edge">
<title>RegisterComponent&#45;&gt;AppModule</title>
<path fill="none" stroke="black" d="M3096,-84.97C3096,-103.89 3096,-130.8 3096,-130.8 3096,-130.8 5303.86,-130.8 5303.86,-130.8"/>
<polygon fill="black" stroke="black" points="5303.86,-134.3 5313.86,-130.8 5303.86,-127.3 5303.86,-134.3"/>
</g>
<!-- ResumenComponent -->
<g id="node41" class="node">
<title>ResumenComponent</title>
<polygon fill="#ffffb3" stroke="black" points="3013.93,-84.8 2880.07,-84.8 2880.07,-48.8 3013.93,-48.8 3013.93,-84.8"/>
<text text-anchor="middle" x="2947" y="-62.6" font-family="Times,serif" font-size="14.00">ResumenComponent</text>
</g>
<!-- ResumenComponent&#45;&gt;AppModule -->
<g id="edge41" class="edge">
<title>ResumenComponent&#45;&gt;AppModule</title>
<path fill="none" stroke="black" d="M2947,-84.91C2947,-104.14 2947,-131.8 2947,-131.8 2947,-131.8 5304.19,-131.8 5304.19,-131.8"/>
<polygon fill="black" stroke="black" points="5304.19,-135.3 5314.19,-131.8 5304.19,-128.3 5304.19,-135.3"/>
</g>
<!-- ResumenEstudianteExternoComponent -->
<g id="node42" class="node">
<title>ResumenEstudianteExternoComponent</title>
<polygon fill="#ffffb3" stroke="black" points="2862.35,-84.8 2625.65,-84.8 2625.65,-48.8 2862.35,-48.8 2862.35,-84.8"/>
<text text-anchor="middle" x="2744" y="-62.6" font-family="Times,serif" font-size="14.00">ResumenEstudianteExternoComponent</text>
</g>
<!-- ResumenEstudianteExternoComponent&#45;&gt;AppModule -->
<g id="edge42" class="edge">
<title>ResumenEstudianteExternoComponent&#45;&gt;AppModule</title>
<path fill="none" stroke="black" d="M2744,-85.11C2744,-104.95 2744,-133.8 2744,-133.8 2744,-133.8 5304.18,-133.8 5304.18,-133.8"/>
<polygon fill="black" stroke="black" points="5304.18,-137.3 5314.18,-133.8 5304.18,-130.3 5304.18,-137.3"/>
</g>
<!-- ResumenEstudianteInternoComponent -->
<g id="node43" class="node">
<title>ResumenEstudianteInternoComponent</title>
<polygon fill="#ffffb3" stroke="black" points="2607.46,-84.8 2374.54,-84.8 2374.54,-48.8 2607.46,-48.8 2607.46,-84.8"/>
<text text-anchor="middle" x="2491" y="-62.6" font-family="Times,serif" font-size="14.00">ResumenEstudianteInternoComponent</text>
</g>
<!-- ResumenEstudianteInternoComponent&#45;&gt;AppModule -->
<g id="edge43" class="edge">
<title>ResumenEstudianteInternoComponent&#45;&gt;AppModule</title>
<path fill="none" stroke="black" d="M2491,-85.02C2491,-105.17 2491,-134.8 2491,-134.8 2491,-134.8 5304.12,-134.8 5304.12,-134.8"/>
<polygon fill="black" stroke="black" points="5304.12,-138.3 5314.12,-134.8 5304.12,-131.3 5304.12,-138.3"/>
</g>
<!-- ResumenOficinaApsComponent -->
<g id="node44" class="node">
<title>ResumenOficinaApsComponent</title>
<polygon fill="#ffffb3" stroke="black" points="2356.96,-84.8 2159.04,-84.8 2159.04,-48.8 2356.96,-48.8 2356.96,-84.8"/>
<text text-anchor="middle" x="2258" y="-62.6" font-family="Times,serif" font-size="14.00">ResumenOficinaApsComponent</text>
</g>
<!-- ResumenOficinaApsComponent&#45;&gt;AppModule -->
<g id="edge44" class="edge">
<title>ResumenOficinaApsComponent&#45;&gt;AppModule</title>
<path fill="none" stroke="black" d="M2258,-84.93C2258,-105.37 2258,-135.8 2258,-135.8 2258,-135.8 5304.26,-135.8 5304.26,-135.8"/>
<polygon fill="black" stroke="black" points="5304.26,-139.3 5314.26,-135.8 5304.26,-132.3 5304.26,-139.3"/>
</g>
<!-- ResumenProfesorExternoComponent -->
<g id="node45" class="node">
<title>ResumenProfesorExternoComponent</title>
<polygon fill="#ffffb3" stroke="black" points="2140.68,-84.8 1915.32,-84.8 1915.32,-48.8 2140.68,-48.8 2140.68,-84.8"/>
<text text-anchor="middle" x="2028" y="-62.6" font-family="Times,serif" font-size="14.00">ResumenProfesorExternoComponent</text>
</g>
<!-- ResumenProfesorExternoComponent&#45;&gt;AppModule -->
<g id="edge45" class="edge">
<title>ResumenProfesorExternoComponent&#45;&gt;AppModule</title>
<path fill="none" stroke="black" d="M2028,-85.08C2028,-106.12 2028,-137.8 2028,-137.8 2028,-137.8 5304.22,-137.8 5304.22,-137.8"/>
<polygon fill="black" stroke="black" points="5304.22,-141.3 5314.22,-137.8 5304.22,-134.3 5304.22,-141.3"/>
</g>
<!-- ResumenProfesorInternoComponent -->
<g id="node46" class="node">
<title>ResumenProfesorInternoComponent</title>
<polygon fill="#ffffb3" stroke="black" points="1897.78,-84.8 1676.22,-84.8 1676.22,-48.8 1897.78,-48.8 1897.78,-84.8"/>
<text text-anchor="middle" x="1787" y="-62.6" font-family="Times,serif" font-size="14.00">ResumenProfesorInternoComponent</text>
</g>
<!-- ResumenProfesorInternoComponent&#45;&gt;AppModule -->
<g id="edge46" class="edge">
<title>ResumenProfesorInternoComponent&#45;&gt;AppModule</title>
<path fill="none" stroke="black" d="M1787,-84.97C1787,-106.3 1787,-138.8 1787,-138.8 1787,-138.8 5304.06,-138.8 5304.06,-138.8"/>
<polygon fill="black" stroke="black" points="5304.06,-142.3 5314.06,-138.8 5304.06,-135.3 5304.06,-142.3"/>
</g>
<!-- ResumenSocioComunitarioComponent -->
<g id="node47" class="node">
<title>ResumenSocioComunitarioComponent</title>
<polygon fill="#ffffb3" stroke="black" points="1658.1,-84.8 1421.9,-84.8 1421.9,-48.8 1658.1,-48.8 1658.1,-84.8"/>
<text text-anchor="middle" x="1540" y="-62.6" font-family="Times,serif" font-size="14.00">ResumenSocioComunitarioComponent</text>
</g>
<!-- ResumenSocioComunitarioComponent&#45;&gt;AppModule -->
<g id="edge47" class="edge">
<title>ResumenSocioComunitarioComponent&#45;&gt;AppModule</title>
<path fill="none" stroke="black" d="M1540,-84.84C1540,-106.46 1540,-139.8 1540,-139.8 1540,-139.8 5304.12,-139.8 5304.12,-139.8"/>
<polygon fill="black" stroke="black" points="5304.12,-143.3 5314.12,-139.8 5304.12,-136.3 5304.12,-143.3"/>
</g>
<!-- SafeHtmlPipe -->
<g id="node48" class="node">
<title>SafeHtmlPipe</title>
<polygon fill="#ffffb3" stroke="black" points="1404.04,-84.8 1309.96,-84.8 1309.96,-48.8 1404.04,-48.8 1404.04,-84.8"/>
<text text-anchor="middle" x="1357" y="-62.6" font-family="Times,serif" font-size="14.00">SafeHtmlPipe</text>
</g>
<!-- SafeHtmlPipe&#45;&gt;AppModule -->
<g id="edge48" class="edge">
<title>SafeHtmlPipe&#45;&gt;AppModule</title>
<path fill="none" stroke="black" d="M1357,-85.09C1357,-107.01 1357,-140.8 1357,-140.8 1357,-140.8 5304.13,-140.8 5304.13,-140.8"/>
<polygon fill="black" stroke="black" points="5304.13,-144.3 5314.13,-140.8 5304.13,-137.3 5304.13,-144.3"/>
</g>
<!-- ServicioOfertadoComponent -->
<g id="node49" class="node">
<title>ServicioOfertadoComponent</title>
<polygon fill="#ffffb3" stroke="black" points="1291.73,-84.8 1114.27,-84.8 1114.27,-48.8 1291.73,-48.8 1291.73,-84.8"/>
<text text-anchor="middle" x="1203" y="-62.6" font-family="Times,serif" font-size="14.00">ServicioOfertadoComponent</text>
</g>
<!-- ServicioOfertadoComponent&#45;&gt;AppModule -->
<g id="edge49" class="edge">
<title>ServicioOfertadoComponent&#45;&gt;AppModule</title>
<path fill="none" stroke="black" d="M1203,-84.81C1203,-107.29 1203,-142.8 1203,-142.8 1203,-142.8 5304.22,-142.8 5304.22,-142.8"/>
<polygon fill="black" stroke="black" points="5304.22,-146.3 5314.22,-142.8 5304.22,-139.3 5304.22,-146.3"/>
</g>
<!-- SobreApsUnedContactaComponent -->
<g id="node50" class="node">
<title>SobreApsUnedContactaComponent</title>
<polygon fill="#ffffb3" stroke="black" points="1096.12,-84.8 879.88,-84.8 879.88,-48.8 1096.12,-48.8 1096.12,-84.8"/>
<text text-anchor="middle" x="988" y="-62.6" font-family="Times,serif" font-size="14.00">SobreApsUnedContactaComponent</text>
</g>
<!-- SobreApsUnedContactaComponent&#45;&gt;AppModule -->
<g id="edge50" class="edge">
<title>SobreApsUnedContactaComponent&#45;&gt;AppModule</title>
<path fill="none" stroke="black" d="M988,-85.05C988,-107.82 988,-143.8 988,-143.8 988,-143.8 5304.17,-143.8 5304.17,-143.8"/>
<polygon fill="black" stroke="black" points="5304.17,-147.3 5314.17,-143.8 5304.17,-140.3 5304.17,-147.3"/>
</g>
<!-- SobreApsUnedHistoriaComponent -->
<g id="node51" class="node">
<title>SobreApsUnedHistoriaComponent</title>
<polygon fill="#ffffb3" stroke="black" points="861.96,-84.8 650.04,-84.8 650.04,-48.8 861.96,-48.8 861.96,-84.8"/>
<text text-anchor="middle" x="756" y="-62.6" font-family="Times,serif" font-size="14.00">SobreApsUnedHistoriaComponent</text>
</g>
<!-- SobreApsUnedHistoriaComponent&#45;&gt;AppModule -->
<g id="edge51" class="edge">
<title>SobreApsUnedHistoriaComponent&#45;&gt;AppModule</title>
<path fill="none" stroke="black" d="M756,-84.89C756,-107.93 756,-144.8 756,-144.8 756,-144.8 5304.12,-144.8 5304.12,-144.8"/>
<polygon fill="black" stroke="black" points="5304.12,-148.3 5314.12,-144.8 5304.12,-141.3 5304.12,-148.3"/>
</g>
<!-- SobreApsUnedQuienesSomosComponent -->
<g id="node52" class="node">
<title>SobreApsUnedQuienesSomosComponent</title>
<polygon fill="#ffffb3" stroke="black" points="632.35,-84.8 381.65,-84.8 381.65,-48.8 632.35,-48.8 632.35,-84.8"/>
<text text-anchor="middle" x="507" y="-62.6" font-family="Times,serif" font-size="14.00">SobreApsUnedQuienesSomosComponent</text>
</g>
<!-- SobreApsUnedQuienesSomosComponent&#45;&gt;AppModule -->
<g id="edge52" class="edge">
<title>SobreApsUnedQuienesSomosComponent&#45;&gt;AppModule</title>
<path fill="none" stroke="black" d="M507,-84.95C507,-108.56 507,-146.8 507,-146.8 507,-146.8 5304.08,-146.8 5304.08,-146.8"/>
<polygon fill="black" stroke="black" points="5304.08,-150.3 5314.08,-146.8 5304.08,-143.3 5304.08,-150.3"/>
</g>
<!-- SugerirOfertaComponent -->
<g id="node53" class="node">
<title>SugerirOfertaComponent</title>
<polygon fill="#ffffb3" stroke="black" points="363.29,-84.8 204.71,-84.8 204.71,-48.8 363.29,-48.8 363.29,-84.8"/>
<text text-anchor="middle" x="284" y="-62.6" font-family="Times,serif" font-size="14.00">SugerirOfertaComponent</text>
</g>
<!-- SugerirOfertaComponent&#45;&gt;AppModule -->
<g id="edge53" class="edge">
<title>SugerirOfertaComponent&#45;&gt;AppModule</title>
<path fill="none" stroke="black" d="M284,-85.18C284,-109.08 284,-147.8 284,-147.8 284,-147.8 5304.05,-147.8 5304.05,-147.8"/>
<polygon fill="black" stroke="black" points="5304.05,-151.3 5314.05,-147.8 5304.05,-144.3 5304.05,-151.3"/>
</g>
<!-- crearDemandaComponent -->
<g id="node54" class="node">
<title>crearDemandaComponent</title>
<polygon fill="#ffffb3" stroke="black" points="186.44,-84.8 23.56,-84.8 23.56,-48.8 186.44,-48.8 186.44,-84.8"/>
<text text-anchor="middle" x="105" y="-62.6" font-family="Times,serif" font-size="14.00">crearDemandaComponent</text>
</g>
<!-- crearDemandaComponent&#45;&gt;AppModule -->
<g id="edge54" class="edge">
<title>crearDemandaComponent&#45;&gt;AppModule</title>
<path fill="none" stroke="black" d="M105,-85C105,-109.16 105,-148.8 105,-148.8 105,-148.8 5304.12,-148.8 5304.12,-148.8"/>
<polygon fill="black" stroke="black" points="5304.12,-152.3 5314.12,-148.8 5304.12,-145.3 5304.12,-152.3"/>
</g>
<!-- AppComponent  -->
<g id="node57" class="node">
<title>AppComponent </title>
<polygon fill="#80b1d3" stroke="black" points="5410.44,-214.8 5301.56,-214.8 5301.56,-178.8 5410.44,-178.8 5410.44,-214.8"/>
<text text-anchor="middle" x="5356" y="-192.6" font-family="Times,serif" font-size="14.00">AppComponent </text>
</g>
<!-- AppModule&#45;&gt;AppComponent  -->
<g id="edge56" class="edge">
<title>AppModule&#45;&gt;AppComponent </title>
<path fill="none" stroke="black" stroke-dasharray="1,5" d="M5356,-149.91C5356,-149.91 5356,-168.79 5356,-168.79"/>
<polygon fill="black" stroke="black" points="5352.5,-168.79 5356,-178.79 5359.5,-168.79 5352.5,-168.79"/>
</g>
<!-- AppRoutingModule -->
<g id="node56" class="node">
<title>AppRoutingModule</title>
<polygon fill="#8dd3c7" stroke="black" points="10326.27,-84.8 10323.27,-88.8 10302.27,-88.8 10299.27,-84.8 10197.73,-84.8 10197.73,-48.8 10326.27,-48.8 10326.27,-84.8"/>
<text text-anchor="middle" x="10262" y="-62.6" font-family="Times,serif" font-size="14.00">AppRoutingModule</text>
</g>
<!-- AppRoutingModule&#45;&gt;AppModule -->
<g id="edge55" class="edge">
<title>AppRoutingModule&#45;&gt;AppModule</title>
<path fill="none" stroke="black" d="M10262,-85C10262,-109.16 10262,-148.8 10262,-148.8 10262,-148.8 5407.67,-148.8 5407.67,-148.8"/>
<polygon fill="black" stroke="black" points="5407.67,-145.3 5397.67,-148.8 5407.67,-152.3 5407.67,-145.3"/>
</g>
</g>
</svg>
