<?xml version="1.0" encoding="UTF-8" standalone="no"?>
<!DOCTYPE svg PUBLIC "-//W3C//DTD SVG 1.1//EN"
 "http://www.w3.org/Graphics/SVG/1.1/DTD/svg11.dtd">
<!-- Generated by graphviz version 2.47.3 (20210619.1520)
 -->
<!-- Title: dependencies Pages: 1 -->
<svg width="10358pt" height="247pt"
 viewBox="0.00 0.00 10358.00 246.80" xmlns="http://www.w3.org/2000/svg" xmlns:xlink="http://www.w3.org/1999/xlink">
<g id="graph0" class="graph" transform="scale(1 1) rotate(0) translate(4 242.8)">
<title>dependencies</title>
<polygon fill="white" stroke="transparent" points="-4,4 -4,-242.8 10354,-242.8 10354,4 -4,4"/>
<text text-anchor="middle" x="5175" y="-8.2" font-family="sans-serif" font-size="14.00">dependencies</text>
<g id="clust1" class="cluster">
<title>cluster_AppModule</title>
<polygon fill="none" stroke="black" stroke-dasharray="1,5" points="8,-32.8 8,-230.8 10342,-230.8 10342,-32.8 8,-32.8"/>
</g>
<g id="clust2" class="cluster">
<title>cluster_AppModule_declarations</title>
<polygon fill="none" stroke="black" points="168,-40.8 168,-92.8 10334,-92.8 10334,-40.8 168,-40.8"/>
</g>
<g id="clust57" class="cluster">
<title>cluster_AppModule_imports</title>
<polygon fill="none" stroke="black" points="16,-40.8 16,-92.8 160,-92.8 160,-40.8 16,-40.8"/>
</g>
<g id="clust59" class="cluster">
<title>cluster_AppModule_bootstrap</title>
<polygon fill="none" stroke="black" points="5295,-170.8 5295,-222.8 5419,-222.8 5419,-170.8 5295,-170.8"/>
</g>
<!-- AppComponent -->
<g id="node1" class="node">
<title>AppComponent</title>
<polygon fill="#ffffb3" stroke="black" points="10325.94,-84.8 10220.06,-84.8 10220.06,-48.8 10325.94,-48.8 10325.94,-84.8"/>
<text text-anchor="middle" x="10273" y="-62.6" font-family="Times,serif" font-size="14.00">AppComponent</text>
</g>
<!-- AppModule -->
<g id="node55" class="node">
<title>AppModule</title>
<polygon fill="#8dd3c7" stroke="black" points="5398.66,-149.8 5395.66,-153.8 5374.66,-153.8 5371.66,-149.8 5315.34,-149.8 5315.34,-113.8 5398.66,-113.8 5398.66,-149.8"/>
<text text-anchor="middle" x="5357" y="-127.6" font-family="Times,serif" font-size="14.00">AppModule</text>
</g>
<!-- AppComponent&#45;&gt;AppModule -->
<g id="edge1" class="edge">
<title>AppComponent&#45;&gt;AppModule</title>
<path fill="none" stroke="black" d="M10273,-85C10273,-109.16 10273,-148.8 10273,-148.8 10273,-148.8 5408.76,-148.8 5408.76,-148.8"/>
<polygon fill="black" stroke="black" points="5408.76,-145.3 5398.76,-148.8 5408.76,-152.3 5408.76,-145.3"/>
</g>
<!-- BreadcrumbsComponent -->
<g id="node2" class="node">
<title>BreadcrumbsComponent</title>
<polygon fill="#ffffb3" stroke="black" points="10201.97,-84.8 10046.03,-84.8 10046.03,-48.8 10201.97,-48.8 10201.97,-84.8"/>
<text text-anchor="middle" x="10124" y="-62.6" font-family="Times,serif" font-size="14.00">BreadcrumbsComponent</text>
</g>
<!-- BreadcrumbsComponent&#45;&gt;AppModule -->
<g id="edge2" class="edge">
<title>BreadcrumbsComponent&#45;&gt;AppModule</title>
<path fill="none" stroke="black" d="M10124,-85.18C10124,-109.08 10124,-147.8 10124,-147.8 10124,-147.8 5408.94,-147.8 5408.94,-147.8"/>
<polygon fill="black" stroke="black" points="5408.94,-144.3 5398.94,-147.8 5408.94,-151.3 5408.94,-144.3"/>
</g>
<!-- CarouselComponent -->
<g id="node3" class="node">
<title>CarouselComponent</title>
<polygon fill="#ffffb3" stroke="black" points="10027.59,-84.8 9896.41,-84.8 9896.41,-48.8 10027.59,-48.8 10027.59,-84.8"/>
<text text-anchor="middle" x="9962" y="-62.6" font-family="Times,serif" font-size="14.00">CarouselComponent</text>
</g>
<!-- CarouselComponent&#45;&gt;AppModule -->
<g id="edge3" class="edge">
<title>CarouselComponent&#45;&gt;AppModule</title>
<path fill="none" stroke="black" d="M9962,-84.95C9962,-108.56 9962,-146.8 9962,-146.8 9962,-146.8 5408.93,-146.8 5408.93,-146.8"/>
<polygon fill="black" stroke="black" points="5408.93,-143.3 5398.93,-146.8 5408.93,-150.3 5408.93,-143.3"/>
</g>
<!-- CheckboxNotificacionesComponent -->
<g id="node4" class="node">
<title>CheckboxNotificacionesComponent</title>
<polygon fill="#ffffb3" stroke="black" points="9878.73,-84.8 9659.27,-84.8 9659.27,-48.8 9878.73,-48.8 9878.73,-84.8"/>
<text text-anchor="middle" x="9769" y="-62.6" font-family="Times,serif" font-size="14.00">CheckboxNotificacionesComponent</text>
</g>
<!-- CheckboxNotificacionesComponent&#45;&gt;AppModule -->
<g id="edge4" class="edge">
<title>CheckboxNotificacionesComponent&#45;&gt;AppModule</title>
<path fill="none" stroke="black" d="M9769,-84.89C9769,-107.93 9769,-144.8 9769,-144.8 9769,-144.8 5408.9,-144.8 5408.9,-144.8"/>
<polygon fill="black" stroke="black" points="5408.9,-141.3 5398.9,-144.8 5408.9,-148.3 5408.9,-141.3"/>
</g>
<!-- Code404Component -->
<g id="node5" class="node">
<title>Code404Component</title>
<polygon fill="#ffffb3" stroke="black" points="9640.88,-84.8 9509.12,-84.8 9509.12,-48.8 9640.88,-48.8 9640.88,-84.8"/>
<text text-anchor="middle" x="9575" y="-62.6" font-family="Times,serif" font-size="14.00">Code404Component</text>
</g>
<!-- Code404Component&#45;&gt;AppModule -->
<g id="edge5" class="edge">
<title>Code404Component&#45;&gt;AppModule</title>
<path fill="none" stroke="black" d="M9575,-85.05C9575,-107.82 9575,-143.8 9575,-143.8 9575,-143.8 5408.75,-143.8 5408.75,-143.8"/>
<polygon fill="black" stroke="black" points="5408.75,-140.3 5398.75,-143.8 5408.75,-147.3 5408.75,-140.3"/>
</g>
<!-- ComoParticiparEstudiantesComponent -->
<g id="node6" class="node">
<title>ComoParticiparEstudiantesComponent</title>
<polygon fill="#ffffb3" stroke="black" points="9491.02,-84.8 9256.98,-84.8 9256.98,-48.8 9491.02,-48.8 9491.02,-84.8"/>
<text text-anchor="middle" x="9374" y="-62.6" font-family="Times,serif" font-size="14.00">ComoParticiparEstudiantesComponent</text>
</g>
<!-- ComoParticiparEstudiantesComponent&#45;&gt;AppModule -->
<g id="edge6" class="edge">
<title>ComoParticiparEstudiantesComponent&#45;&gt;AppModule</title>
<path fill="none" stroke="black" d="M9374,-84.81C9374,-107.29 9374,-142.8 9374,-142.8 9374,-142.8 5408.73,-142.8 5408.73,-142.8"/>
<polygon fill="black" stroke="black" points="5408.73,-139.3 5398.73,-142.8 5408.73,-146.3 5408.73,-139.3"/>
</g>
<!-- ComoParticiparProfesoresComponent -->
<g id="node7" class="node">
<title>ComoParticiparProfesoresComponent</title>
<polygon fill="#ffffb3" stroke="black" points="9238.56,-84.8 9009.44,-84.8 9009.44,-48.8 9238.56,-48.8 9238.56,-84.8"/>
<text text-anchor="middle" x="9124" y="-62.6" font-family="Times,serif" font-size="14.00">ComoParticiparProfesoresComponent</text>
</g>
<!-- ComoParticiparProfesoresComponent&#45;&gt;AppModule -->
<g id="edge7" class="edge">
<title>ComoParticiparProfesoresComponent&#45;&gt;AppModule</title>
<path fill="none" stroke="black" d="M9124,-85.09C9124,-107.01 9124,-140.8 9124,-140.8 9124,-140.8 5408.66,-140.8 5408.66,-140.8"/>
<polygon fill="black" stroke="black" points="5408.66,-137.3 5398.66,-140.8 5408.66,-144.3 5408.66,-137.3"/>
</g>
<!-- ComoParticiparSociosComunitariosComponent -->
<g id="node8" class="node">
<title>ComoParticiparSociosComunitariosComponent</title>
<polygon fill="#ffffb3" stroke="black" points="8991.53,-84.8 8708.47,-84.8 8708.47,-48.8 8991.53,-48.8 8991.53,-84.8"/>
<text text-anchor="middle" x="8850" y="-62.6" font-family="Times,serif" font-size="14.00">ComoParticiparSociosComunitariosComponent</text>
</g>
<!-- ComoParticiparSociosComunitariosComponent&#45;&gt;AppModule -->
<g id="edge8" class="edge">
<title>ComoParticiparSociosComunitariosComponent&#45;&gt;AppModule</title>
<path fill="none" stroke="black" d="M8850,-84.84C8850,-106.46 8850,-139.8 8850,-139.8 8850,-139.8 5408.66,-139.8 5408.66,-139.8"/>
<polygon fill="black" stroke="black" points="5408.66,-136.3 5398.66,-139.8 5408.66,-143.3 5408.66,-136.3"/>
</g>
<!-- CondicionesComponent -->
<g id="node9" class="node">
<title>CondicionesComponent</title>
<polygon fill="#ffffb3" stroke="black" points="8690.82,-84.8 8539.18,-84.8 8539.18,-48.8 8690.82,-48.8 8690.82,-84.8"/>
<text text-anchor="middle" x="8615" y="-62.6" font-family="Times,serif" font-size="14.00">CondicionesComponent</text>
</g>
<!-- CondicionesComponent&#45;&gt;AppModule -->
<g id="edge9" class="edge">
<title>CondicionesComponent&#45;&gt;AppModule</title>
<path fill="none" stroke="black" d="M8615,-84.97C8615,-106.3 8615,-138.8 8615,-138.8 8615,-138.8 5408.79,-138.8 5408.79,-138.8"/>
<polygon fill="black" stroke="black" points="5408.79,-135.3 5398.79,-138.8 5408.79,-142.3 5408.79,-135.3"/>
</g>
<!-- DemandasComponent -->
<g id="node10" class="node">
<title>DemandasComponent</title>
<polygon fill="#ffffb3" stroke="black" points="8521.42,-84.8 8380.58,-84.8 8380.58,-48.8 8521.42,-48.8 8521.42,-84.8"/>
<text text-anchor="middle" x="8451" y="-62.6" font-family="Times,serif" font-size="14.00">DemandasComponent</text>
</g>
<!-- DemandasComponent&#45;&gt;AppModule -->
<g id="edge10" class="edge">
<title>DemandasComponent&#45;&gt;AppModule</title>
<path fill="none" stroke="black" d="M8451,-85.08C8451,-106.12 8451,-137.8 8451,-137.8 8451,-137.8 5408.69,-137.8 5408.69,-137.8"/>
<polygon fill="black" stroke="black" points="5408.69,-134.3 5398.69,-137.8 5408.69,-141.3 5408.69,-134.3"/>
</g>
<!-- DemandasVerComponent -->
<g id="node11" class="node">
<title>DemandasVerComponent</title>
<polygon fill="#ffffb3" stroke="black" points="8362.9,-84.8 8201.1,-84.8 8201.1,-48.8 8362.9,-48.8 8362.9,-84.8"/>
<text text-anchor="middle" x="8282" y="-62.6" font-family="Times,serif" font-size="14.00">DemandasVerComponent</text>
</g>
<!-- DemandasVerComponent&#45;&gt;AppModule -->
<g id="edge11" class="edge">
<title>DemandasVerComponent&#45;&gt;AppModule</title>
<path fill="none" stroke="black" d="M8282,-84.93C8282,-105.37 8282,-135.8 8282,-135.8 8282,-135.8 5408.91,-135.8 5408.91,-135.8"/>
<polygon fill="black" stroke="black" points="5408.91,-132.3 5398.91,-135.8 5408.91,-139.3 5408.91,-132.3"/>
</g>
<!-- FaqComponent -->
<g id="node12" class="node">
<title>FaqComponent</title>
<polygon fill="#ffffb3" stroke="black" points="8183.33,-84.8 8080.67,-84.8 8080.67,-48.8 8183.33,-48.8 8183.33,-84.8"/>
<text text-anchor="middle" x="8132" y="-62.6" font-family="Times,serif" font-size="14.00">FaqComponent</text>
</g>
<!-- FaqComponent&#45;&gt;AppModule -->
<g id="edge12" class="edge">
<title>FaqComponent&#45;&gt;AppModule</title>
<path fill="none" stroke="black" d="M8132,-85.02C8132,-105.17 8132,-134.8 8132,-134.8 8132,-134.8 5408.93,-134.8 5408.93,-134.8"/>
<polygon fill="black" stroke="black" points="5408.93,-131.3 5398.93,-134.8 5408.93,-138.3 5408.93,-131.3"/>
</g>
<!-- FooterComponent -->
<g id="node13" class="node">
<title>FooterComponent</title>
<polygon fill="#ffffb3" stroke="black" points="8062.88,-84.8 7945.12,-84.8 7945.12,-48.8 8062.88,-48.8 8062.88,-84.8"/>
<text text-anchor="middle" x="8004" y="-62.6" font-family="Times,serif" font-size="14.00">FooterComponent</text>
</g>
<!-- FooterComponent&#45;&gt;AppModule -->
<g id="edge13" class="edge">
<title>FooterComponent&#45;&gt;AppModule</title>
<path fill="none" stroke="black" d="M8004,-85.11C8004,-104.95 8004,-133.8 8004,-133.8 8004,-133.8 5408.84,-133.8 5408.84,-133.8"/>
<polygon fill="black" stroke="black" points="5408.84,-130.3 5398.84,-133.8 5408.84,-137.3 5408.84,-130.3"/>
</g>
<!-- GestionUsuariosComponent -->
<g id="node14" class="node">
<title>GestionUsuariosComponent</title>
<polygon fill="#ffffb3" stroke="black" points="7927.14,-84.8 7752.86,-84.8 7752.86,-48.8 7927.14,-48.8 7927.14,-84.8"/>
<text text-anchor="middle" x="7840" y="-62.6" font-family="Times,serif" font-size="14.00">GestionUsuariosComponent</text>
</g>
<!-- GestionUsuariosComponent&#45;&gt;AppModule -->
<g id="edge14" class="edge">
<title>GestionUsuariosComponent&#45;&gt;AppModule</title>
<path fill="none" stroke="black" d="M7840,-84.91C7840,-104.14 7840,-131.8 7840,-131.8 7840,-131.8 5408.8,-131.8 5408.8,-131.8"/>
<polygon fill="black" stroke="black" points="5408.8,-128.3 5398.8,-131.8 5408.8,-135.3 5408.8,-128.3"/>
</g>
<!-- GestionUsuariosEditarComponent -->
<g id="node15" class="node">
<title>GestionUsuariosEditarComponent</title>
<polygon fill="#ffffb3" stroke="black" points="7734.35,-84.8 7525.65,-84.8 7525.65,-48.8 7734.35,-48.8 7734.35,-84.8"/>
<text text-anchor="middle" x="7630" y="-62.6" font-family="Times,serif" font-size="14.00">GestionUsuariosEditarComponent</text>
</g>
<!-- GestionUsuariosEditarComponent&#45;&gt;AppModule -->
<g id="edge15" class="edge">
<title>GestionUsuariosEditarComponent&#45;&gt;AppModule</title>
<path fill="none" stroke="black" d="M7630,-84.97C7630,-103.89 7630,-130.8 7630,-130.8 7630,-130.8 5408.88,-130.8 5408.88,-130.8"/>
<polygon fill="black" stroke="black" points="5408.88,-127.3 5398.88,-130.8 5408.88,-134.3 5408.88,-127.3"/>
</g>
<!-- GestorEmailsComponent -->
<g id="node16" class="node">
<title>GestorEmailsComponent</title>
<polygon fill="#ffffb3" stroke="black" points="7507.53,-84.8 7350.47,-84.8 7350.47,-48.8 7507.53,-48.8 7507.53,-84.8"/>
<text text-anchor="middle" x="7429" y="-62.6" font-family="Times,serif" font-size="14.00">GestorEmailsComponent</text>
</g>
<!-- GestorEmailsComponent&#45;&gt;AppModule -->
<g id="edge16" class="edge">
<title>GestorEmailsComponent&#45;&gt;AppModule</title>
<path fill="none" stroke="black" d="M7429,-85.02C7429,-103.63 7429,-129.8 7429,-129.8 7429,-129.8 5408.86,-129.8 5408.86,-129.8"/>
<polygon fill="black" stroke="black" points="5408.86,-126.3 5398.86,-129.8 5408.86,-133.3 5408.86,-126.3"/>
</g>
<!-- GestorNewsletterComponent -->
<g id="node17" class="node">
<title>GestorNewsletterComponent</title>
<polygon fill="#ffffb3" stroke="black" points="7332.78,-84.8 7153.22,-84.8 7153.22,-48.8 7332.78,-48.8 7332.78,-84.8"/>
<text text-anchor="middle" x="7243" y="-62.6" font-family="Times,serif" font-size="14.00">GestorNewsletterComponent</text>
</g>
<!-- GestorNewsletterComponent&#45;&gt;AppModule -->
<g id="edge17" class="edge">
<title>GestorNewsletterComponent&#45;&gt;AppModule</title>
<path fill="none" stroke="black" d="M7243,-85.07C7243,-103.36 7243,-128.8 7243,-128.8 7243,-128.8 5409.04,-128.8 5409.04,-128.8"/>
<polygon fill="black" stroke="black" points="5409.04,-125.3 5399.04,-128.8 5409.04,-132.3 5409.04,-125.3"/>
</g>
<!-- HomeComponent -->
<g id="node18" class="node">
<title>HomeComponent</title>
<polygon fill="#ffffb3" stroke="black" points="7135.55,-84.8 7020.45,-84.8 7020.45,-48.8 7135.55,-48.8 7135.55,-84.8"/>
<text text-anchor="middle" x="7078" y="-62.6" font-family="Times,serif" font-size="14.00">HomeComponent</text>
</g>
<!-- HomeComponent&#45;&gt;AppModule -->
<g id="edge18" class="edge">
<title>HomeComponent&#45;&gt;AppModule</title>
<path fill="none" stroke="black" d="M7078,-84.8C7078,-102.48 7078,-126.8 7078,-126.8 7078,-126.8 5408.69,-126.8 5408.69,-126.8"/>
<polygon fill="black" stroke="black" points="5408.69,-123.3 5398.69,-126.8 5408.69,-130.3 5408.69,-123.3"/>
</g>
<!-- IniciativaRespaldadaComponent -->
<g id="node19" class="node">
<title>IniciativaRespaldadaComponent</title>
<polygon fill="#ffffb3" stroke="black" points="7002.23,-84.8 6803.77,-84.8 6803.77,-48.8 7002.23,-48.8 7002.23,-84.8"/>
<text text-anchor="middle" x="6903" y="-62.6" font-family="Times,serif" font-size="14.00">IniciativaRespaldadaComponent</text>
</g>
<!-- IniciativaRespaldadaComponent&#45;&gt;AppModule -->
<g id="edge19" class="edge">
<title>IniciativaRespaldadaComponent&#45;&gt;AppModule</title>
<path fill="none" stroke="black" d="M6903,-84.82C6903,-102.17 6903,-125.8 6903,-125.8 6903,-125.8 5408.75,-125.8 5408.75,-125.8"/>
<polygon fill="black" stroke="black" points="5408.75,-122.3 5398.75,-125.8 5408.75,-129.3 5408.75,-122.3"/>
</g>
<!-- IniciativasComponent -->
<g id="node20" class="node">
<title>IniciativasComponent</title>
<polygon fill="#ffffb3" stroke="black" points="6785.64,-84.8 6646.36,-84.8 6646.36,-48.8 6785.64,-48.8 6785.64,-84.8"/>
<text text-anchor="middle" x="6716" y="-62.6" font-family="Times,serif" font-size="14.00">IniciativasComponent</text>
</g>
<!-- IniciativasComponent&#45;&gt;AppModule -->
<g id="edge20" class="edge">
<title>IniciativasComponent&#45;&gt;AppModule</title>
<path fill="none" stroke="black" d="M6716,-84.83C6716,-101.86 6716,-124.8 6716,-124.8 6716,-124.8 5408.79,-124.8 5408.79,-124.8"/>
<polygon fill="black" stroke="black" points="5408.79,-121.3 5398.79,-124.8 5408.79,-128.3 5408.79,-121.3"/>
</g>
<!-- IniciativasCrearComponent -->
<g id="node21" class="node">
<title>IniciativasCrearComponent</title>
<polygon fill="#ffffb3" stroke="black" points="6628.23,-84.8 6457.77,-84.8 6457.77,-48.8 6628.23,-48.8 6628.23,-84.8"/>
<text text-anchor="middle" x="6543" y="-62.6" font-family="Times,serif" font-size="14.00">IniciativasCrearComponent</text>
</g>
<!-- IniciativasCrearComponent&#45;&gt;AppModule -->
<g id="edge21" class="edge">
<title>IniciativasCrearComponent&#45;&gt;AppModule</title>
<path fill="none" stroke="black" d="M6543,-84.83C6543,-101.2 6543,-122.8 6543,-122.8 6543,-122.8 5408.86,-122.8 5408.86,-122.8"/>
<polygon fill="black" stroke="black" points="5408.86,-119.3 5398.86,-122.8 5408.86,-126.3 5408.86,-119.3"/>
</g>
<!-- IniciativasEditarComponent -->
<g id="node22" class="node">
<title>IniciativasEditarComponent</title>
<polygon fill="#ffffb3" stroke="black" points="6439.85,-84.8 6266.15,-84.8 6266.15,-48.8 6439.85,-48.8 6439.85,-84.8"/>
<text text-anchor="middle" x="6353" y="-62.6" font-family="Times,serif" font-size="14.00">IniciativasEditarComponent</text>
</g>
<!-- IniciativasEditarComponent&#45;&gt;AppModule -->
<g id="edge22" class="edge">
<title>IniciativasEditarComponent&#45;&gt;AppModule</title>
<path fill="none" stroke="black" d="M6353,-84.81C6353,-100.85 6353,-121.8 6353,-121.8 6353,-121.8 5408.84,-121.8 5408.84,-121.8"/>
<polygon fill="black" stroke="black" points="5408.84,-118.3 5398.84,-121.8 5408.84,-125.3 5408.84,-118.3"/>
</g>
<!-- IniciativasVerComponent -->
<g id="node23" class="node">
<title>IniciativasVerComponent</title>
<polygon fill="#ffffb3" stroke="black" points="6248.13,-84.8 6087.87,-84.8 6087.87,-48.8 6248.13,-48.8 6248.13,-84.8"/>
<text text-anchor="middle" x="6168" y="-62.6" font-family="Times,serif" font-size="14.00">IniciativasVerComponent</text>
</g>
<!-- IniciativasVerComponent&#45;&gt;AppModule -->
<g id="edge23" class="edge">
<title>IniciativasVerComponent&#45;&gt;AppModule</title>
<path fill="none" stroke="black" d="M6168,-85.08C6168,-100.75 6168,-120.8 6168,-120.8 6168,-120.8 5408.9,-120.8 5408.9,-120.8"/>
<polygon fill="black" stroke="black" points="5408.9,-117.3 5398.9,-120.8 5408.9,-124.3 5408.9,-117.3"/>
</g>
<!-- LoginComponent -->
<g id="node24" class="node">
<title>LoginComponent</title>
<polygon fill="#ffffb3" stroke="black" points="6069.28,-84.8 5954.72,-84.8 5954.72,-48.8 6069.28,-48.8 6069.28,-84.8"/>
<text text-anchor="middle" x="6012" y="-62.6" font-family="Times,serif" font-size="14.00">LoginComponent</text>
</g>
<!-- LoginComponent&#45;&gt;AppModule -->
<g id="edge24" class="edge">
<title>LoginComponent&#45;&gt;AppModule</title>
<path fill="none" stroke="black" d="M6012,-85.04C6012,-100.37 6012,-119.8 6012,-119.8 6012,-119.8 5408.97,-119.8 5408.97,-119.8"/>
<polygon fill="black" stroke="black" points="5408.97,-116.3 5398.97,-119.8 5408.97,-123.3 5408.97,-116.3"/>
</g>
<!-- NavbarComponent -->
<g id="node25" class="node">
<title>NavbarComponent</title>
<polygon fill="#ffffb3" stroke="black" points="5936.03,-84.8 5813.97,-84.8 5813.97,-48.8 5936.03,-48.8 5936.03,-84.8"/>
<text text-anchor="middle" x="5875" y="-62.6" font-family="Times,serif" font-size="14.00">NavbarComponent</text>
</g>
<!-- NavbarComponent&#45;&gt;AppModule -->
<g id="edge25" class="edge">
<title>NavbarComponent&#45;&gt;AppModule</title>
<path fill="none" stroke="black" d="M5875,-84.92C5875,-99.58 5875,-117.8 5875,-117.8 5875,-117.8 5408.95,-117.8 5408.95,-117.8"/>
<polygon fill="black" stroke="black" points="5408.95,-114.3 5398.95,-117.8 5408.95,-121.3 5408.95,-114.3"/>
</g>
<!-- NewsletterSubscribeComponent -->
<g id="node26" class="node">
<title>NewsletterSubscribeComponent</title>
<polygon fill="#ffffb3" stroke="black" points="5795.67,-84.8 5598.33,-84.8 5598.33,-48.8 5795.67,-48.8 5795.67,-84.8"/>
<text text-anchor="middle" x="5697" y="-62.6" font-family="Times,serif" font-size="14.00">NewsletterSubscribeComponent</text>
</g>
<!-- NewsletterSubscribeComponent&#45;&gt;AppModule -->
<g id="edge26" class="edge">
<title>NewsletterSubscribeComponent&#45;&gt;AppModule</title>
<path fill="none" stroke="black" d="M5697,-84.85C5697,-99.17 5697,-116.8 5697,-116.8 5697,-116.8 5408.69,-116.8 5408.69,-116.8"/>
<polygon fill="black" stroke="black" points="5408.69,-113.3 5398.69,-116.8 5408.69,-120.3 5408.69,-113.3"/>
</g>
<!-- OfertaCardComponent -->
<g id="node27" class="node">
<title>OfertaCardComponent</title>
<polygon fill="#ffffb3" stroke="black" points="5580.29,-84.8 5435.71,-84.8 5435.71,-48.8 5580.29,-48.8 5580.29,-84.8"/>
<text text-anchor="middle" x="5508" y="-62.6" font-family="Times,serif" font-size="14.00">OfertaCardComponent</text>
</g>
<!-- OfertaCardComponent&#45;&gt;AppModule -->
<g id="edge27" class="edge">
<title>OfertaCardComponent&#45;&gt;AppModule</title>
<path fill="none" stroke="black" d="M5508,-85.05C5508,-98.98 5508,-115.8 5508,-115.8 5508,-115.8 5408.66,-115.8 5408.66,-115.8"/>
<polygon fill="black" stroke="black" points="5408.66,-112.3 5398.66,-115.8 5408.66,-119.3 5408.66,-112.3"/>
</g>
<!-- OfertasComponent -->
<g id="node28" class="node">
<title>OfertasComponent</title>
<polygon fill="#ffffb3" stroke="black" points="5418.03,-84.8 5295.97,-84.8 5295.97,-48.8 5418.03,-48.8 5418.03,-84.8"/>
<text text-anchor="middle" x="5357" y="-62.6" font-family="Times,serif" font-size="14.00">OfertasComponent</text>
</g>
<!-- OfertasComponent&#45;&gt;AppModule -->
<g id="edge28" class="edge">
<title>OfertasComponent&#45;&gt;AppModule</title>
<path fill="none" stroke="black" d="M5357,-84.91C5357,-84.91 5357,-103.79 5357,-103.79"/>
<polygon fill="black" stroke="black" points="5353.5,-103.79 5357,-113.79 5360.5,-103.79 5353.5,-103.79"/>
</g>
<!-- OfertasCrearComponent -->
<g id="node29" class="node">
<title>OfertasCrearComponent</title>
<polygon fill="#ffffb3" stroke="black" points="5277.61,-84.8 5124.39,-84.8 5124.39,-48.8 5277.61,-48.8 5277.61,-84.8"/>
<text text-anchor="middle" x="5201" y="-62.6" font-family="Times,serif" font-size="14.00">OfertasCrearComponent</text>
</g>
<!-- OfertasCrearComponent&#45;&gt;AppModule -->
<g id="edge29" class="edge">
<title>OfertasCrearComponent&#45;&gt;AppModule</title>
<path fill="none" stroke="black" d="M5201,-85.05C5201,-98.98 5201,-115.8 5201,-115.8 5201,-115.8 5305.19,-115.8 5305.19,-115.8"/>
<polygon fill="black" stroke="black" points="5305.19,-119.3 5315.19,-115.8 5305.19,-112.3 5305.19,-119.3"/>
</g>
<!-- OfertasVerComponent -->
<g id="node30" class="node">
<title>OfertasVerComponent</title>
<polygon fill="#ffffb3" stroke="black" points="5105.51,-84.8 4962.49,-84.8 4962.49,-48.8 5105.51,-48.8 5105.51,-84.8"/>
<text text-anchor="middle" x="5034" y="-62.6" font-family="Times,serif" font-size="14.00">OfertasVerComponent</text>
</g>
<!-- OfertasVerComponent&#45;&gt;AppModule -->
<g id="edge30" class="edge">
<title>OfertasVerComponent&#45;&gt;AppModule</title>
<path fill="none" stroke="black" d="M5034,-84.85C5034,-99.17 5034,-116.8 5034,-116.8 5034,-116.8 5305.1,-116.8 5305.1,-116.8"/>
<polygon fill="black" stroke="black" points="5305.1,-120.3 5315.1,-116.8 5305.1,-113.3 5305.1,-120.3"/>
</g>
<!-- PartenariadoCrearProfesorComponent -->
<g id="node31" class="node">
<title>PartenariadoCrearProfesorComponent</title>
<polygon fill="#ffffb3" stroke="black" points="4944.09,-84.8 4713.91,-84.8 4713.91,-48.8 4944.09,-48.8 4944.09,-84.8"/>
<text text-anchor="middle" x="4829" y="-62.6" font-family="Times,serif" font-size="14.00">PartenariadoCrearProfesorComponent</text>
</g>
<!-- PartenariadoCrearProfesorComponent&#45;&gt;AppModule -->
<g id="edge31" class="edge">
<title>PartenariadoCrearProfesorComponent&#45;&gt;AppModule</title>
<path fill="none" stroke="black" d="M4829,-84.92C4829,-99.58 4829,-117.8 4829,-117.8 4829,-117.8 5305.13,-117.8 5305.13,-117.8"/>
<polygon fill="black" stroke="black" points="5305.13,-121.3 5315.13,-117.8 5305.13,-114.3 5305.13,-121.3"/>
</g>
<!-- PartenariadosCardComponent -->
<g id="node32" class="node">
<title>PartenariadosCardComponent</title>
<polygon fill="#ffffb3" stroke="black" points="4695.23,-84.8 4510.77,-84.8 4510.77,-48.8 4695.23,-48.8 4695.23,-84.8"/>
<text text-anchor="middle" x="4603" y="-62.6" font-family="Times,serif" font-size="14.00">PartenariadosCardComponent</text>
</g>
<!-- PartenariadosCardComponent&#45;&gt;AppModule -->
<g id="edge32" class="edge">
<title>PartenariadosCardComponent&#45;&gt;AppModule</title>
<path fill="none" stroke="black" d="M4603,-85.04C4603,-100.37 4603,-119.8 4603,-119.8 4603,-119.8 5305.12,-119.8 5305.12,-119.8"/>
<polygon fill="black" stroke="black" points="5305.12,-123.3 5315.12,-119.8 5305.12,-116.3 5305.12,-123.3"/>
</g>
<!-- PartenariadosComponent -->
<g id="node33" class="node">
<title>PartenariadosComponent</title>
<polygon fill="#ffffb3" stroke="black" points="4492.52,-84.8 4335.48,-84.8 4335.48,-48.8 4492.52,-48.8 4492.52,-84.8"/>
<text text-anchor="middle" x="4414" y="-62.6" font-family="Times,serif" font-size="14.00">PartenariadosComponent</text>
</g>
<!-- PartenariadosComponent&#45;&gt;AppModule -->
<g id="edge33" class="edge">
<title>PartenariadosComponent&#45;&gt;AppModule</title>
<path fill="none" stroke="black" d="M4414,-85.08C4414,-100.75 4414,-120.8 4414,-120.8 4414,-120.8 5305.26,-120.8 5305.26,-120.8"/>
<polygon fill="black" stroke="black" points="5305.26,-124.3 5315.26,-120.8 5305.26,-117.3 5305.26,-124.3"/>
</g>
<!-- PartenariadosVerComponent -->
<g id="node34" class="node">
<title>PartenariadosVerComponent</title>
<polygon fill="#ffffb3" stroke="black" points="4317,-84.8 4139,-84.8 4139,-48.8 4317,-48.8 4317,-84.8"/>
<text text-anchor="middle" x="4228" y="-62.6" font-family="Times,serif" font-size="14.00">PartenariadosVerComponent</text>
</g>
<!-- PartenariadosVerComponent&#45;&gt;AppModule -->
<g id="edge34" class="edge">
<title>PartenariadosVerComponent&#45;&gt;AppModule</title>
<path fill="none" stroke="black" d="M4228,-84.81C4228,-100.85 4228,-121.8 4228,-121.8 4228,-121.8 5305.14,-121.8 5305.14,-121.8"/>
<polygon fill="black" stroke="black" points="5305.14,-125.3 5315.14,-121.8 5305.14,-118.3 5305.14,-125.3"/>
</g>
<!-- ProfileComponent -->
<g id="node35" class="node">
<title>ProfileComponent</title>
<polygon fill="#ffffb3" stroke="black" points="4120.93,-84.8 4001.07,-84.8 4001.07,-48.8 4120.93,-48.8 4120.93,-84.8"/>
<text text-anchor="middle" x="4061" y="-62.6" font-family="Times,serif" font-size="14.00">ProfileComponent</text>
</g>
<!-- ProfileComponent&#45;&gt;AppModule -->
<g id="edge35" class="edge">
<title>ProfileComponent&#45;&gt;AppModule</title>
<path fill="none" stroke="black" d="M4061,-84.83C4061,-101.2 4061,-122.8 4061,-122.8 4061,-122.8 5304.98,-122.8 5304.98,-122.8"/>
<polygon fill="black" stroke="black" points="5304.98,-126.3 5314.98,-122.8 5304.98,-119.3 5304.98,-126.3"/>
</g>
<!-- ProyectosCardComponent -->
<g id="node36" class="node">
<title>ProyectosCardComponent</title>
<polygon fill="#ffffb3" stroke="black" points="3982.75,-84.8 3819.25,-84.8 3819.25,-48.8 3982.75,-48.8 3982.75,-84.8"/>
<text text-anchor="middle" x="3901" y="-62.6" font-family="Times,serif" font-size="14.00">ProyectosCardComponent</text>
</g>
<!-- ProyectosCardComponent&#45;&gt;AppModule -->
<g id="edge36" class="edge">
<title>ProyectosCardComponent&#45;&gt;AppModule</title>
<path fill="none" stroke="black" d="M3901,-84.83C3901,-101.86 3901,-124.8 3901,-124.8 3901,-124.8 5304.99,-124.8 5304.99,-124.8"/>
<polygon fill="black" stroke="black" points="5305,-128.3 5314.99,-124.8 5304.99,-121.3 5305,-128.3"/>
</g>
<!-- ProyectosComponent -->
<g id="node37" class="node">
<title>ProyectosComponent</title>
<polygon fill="#ffffb3" stroke="black" points="3801.04,-84.8 3664.96,-84.8 3664.96,-48.8 3801.04,-48.8 3801.04,-84.8"/>
<text text-anchor="middle" x="3733" y="-62.6" font-family="Times,serif" font-size="14.00">ProyectosComponent</text>
</g>
<!-- ProyectosComponent&#45;&gt;AppModule -->
<g id="edge37" class="edge">
<title>ProyectosComponent&#45;&gt;AppModule</title>
<path fill="none" stroke="black" d="M3733,-84.82C3733,-102.17 3733,-125.8 3733,-125.8 3733,-125.8 5305.22,-125.8 5305.22,-125.8"/>
<polygon fill="black" stroke="black" points="5305.22,-129.3 5315.22,-125.8 5305.22,-122.3 5305.22,-129.3"/>
</g>
<!-- ProyectosVerComponent -->
<g id="node38" class="node">
<title>ProyectosVerComponent</title>
<polygon fill="#ffffb3" stroke="black" points="3646.52,-84.8 3489.48,-84.8 3489.48,-48.8 3646.52,-48.8 3646.52,-84.8"/>
<text text-anchor="middle" x="3568" y="-62.6" font-family="Times,serif" font-size="14.00">ProyectosVerComponent</text>
</g>
<!-- ProyectosVerComponent&#45;&gt;AppModule -->
<g id="edge38" class="edge">
<title>ProyectosVerComponent&#45;&gt;AppModule</title>
<path fill="none" stroke="black" d="M3568,-84.8C3568,-102.48 3568,-126.8 3568,-126.8 3568,-126.8 5304.98,-126.8 5304.98,-126.8"/>
<polygon fill="black" stroke="black" points="5304.98,-130.3 5314.98,-126.8 5304.98,-123.3 5304.98,-130.3"/>
</g>
<!-- QueEsApsComponent -->
<g id="node39" class="node">
<title>QueEsApsComponent</title>
<polygon fill="#ffffb3" stroke="black" points="3471.7,-84.8 3330.3,-84.8 3330.3,-48.8 3471.7,-48.8 3471.7,-84.8"/>
<text text-anchor="middle" x="3401" y="-62.6" font-family="Times,serif" font-size="14.00">QueEsApsComponent</text>
</g>
<!-- QueEsApsComponent&#45;&gt;AppModule -->
<g id="edge39" class="edge">
<title>QueEsApsComponent&#45;&gt;AppModule</title>
<path fill="none" stroke="black" d="M3401,-85.07C3401,-103.36 3401,-128.8 3401,-128.8 3401,-128.8 5305.24,-128.8 5305.24,-128.8"/>
<polygon fill="black" stroke="black" points="5305.24,-132.3 5315.24,-128.8 5305.24,-125.3 5305.24,-132.3"/>
</g>
<!-- RegisterComponent -->
<g id="node40" class="node">
<title>RegisterComponent</title>
<polygon fill="#ffffb3" stroke="black" points="3311.98,-84.8 3184.02,-84.8 3184.02,-48.8 3311.98,-48.8 3311.98,-84.8"/>
<text text-anchor="middle" x="3248" y="-62.6" font-family="Times,serif" font-size="14.00">RegisterComponent</text>
</g>
<!-- RegisterComponent&#45;&gt;AppModule -->
<g id="edge40" class="edge">
<title>RegisterComponent&#45;&gt;AppModule</title>
<path fill="none" stroke="black" d="M3248,-85.02C3248,-103.63 3248,-129.8 3248,-129.8 3248,-129.8 5304.87,-129.8 5304.87,-129.8"/>
<polygon fill="black" stroke="black" points="5304.87,-133.3 5314.87,-129.8 5304.87,-126.3 5304.87,-133.3"/>
</g>
<!-- ResumenComponent -->
<g id="node41" class="node">
<title>ResumenComponent</title>
<polygon fill="#ffffb3" stroke="black" points="3165.93,-84.8 3032.07,-84.8 3032.07,-48.8 3165.93,-48.8 3165.93,-84.8"/>
<text text-anchor="middle" x="3099" y="-62.6" font-family="Times,serif" font-size="14.00">ResumenComponent</text>
</g>
<!-- ResumenComponent&#45;&gt;AppModule -->
<g id="edge41" class="edge">
<title>ResumenComponent&#45;&gt;AppModule</title>
<path fill="none" stroke="black" d="M3099,-84.97C3099,-103.89 3099,-130.8 3099,-130.8 3099,-130.8 5304.9,-130.8 5304.9,-130.8"/>
<polygon fill="black" stroke="black" points="5304.9,-134.3 5314.9,-130.8 5304.9,-127.3 5304.9,-134.3"/>
</g>
<!-- ResumenEstudianteExternoComponent -->
<g id="node42" class="node">
<title>ResumenEstudianteExternoComponent</title>
<polygon fill="#ffffb3" stroke="black" points="3014.35,-84.8 2777.65,-84.8 2777.65,-48.8 3014.35,-48.8 3014.35,-84.8"/>
<text text-anchor="middle" x="2896" y="-62.6" font-family="Times,serif" font-size="14.00">ResumenEstudianteExternoComponent</text>
</g>
<!-- ResumenEstudianteExternoComponent&#45;&gt;AppModule -->
<g id="edge42" class="edge">
<title>ResumenEstudianteExternoComponent&#45;&gt;AppModule</title>
<path fill="none" stroke="black" d="M2896,-84.91C2896,-104.14 2896,-131.8 2896,-131.8 2896,-131.8 5305.32,-131.8 5305.32,-131.8"/>
<polygon fill="black" stroke="black" points="5305.32,-135.3 5315.32,-131.8 5305.32,-128.3 5305.32,-135.3"/>
</g>
<!-- ResumenEstudianteInternoComponent -->
<g id="node43" class="node">
<title>ResumenEstudianteInternoComponent</title>
<polygon fill="#ffffb3" stroke="black" points="2759.46,-84.8 2526.54,-84.8 2526.54,-48.8 2759.46,-48.8 2759.46,-84.8"/>
<text text-anchor="middle" x="2643" y="-62.6" font-family="Times,serif" font-size="14.00">ResumenEstudianteInternoComponent</text>
</g>
<!-- ResumenEstudianteInternoComponent&#45;&gt;AppModule -->
<g id="edge43" class="edge">
<title>ResumenEstudianteInternoComponent&#45;&gt;AppModule</title>
<path fill="none" stroke="black" d="M2643,-85.11C2643,-104.95 2643,-133.8 2643,-133.8 2643,-133.8 5305.19,-133.8 5305.19,-133.8"/>
<polygon fill="black" stroke="black" points="5305.19,-137.3 5315.19,-133.8 5305.19,-130.3 5305.19,-137.3"/>
</g>
<!-- ResumenOficinaApsComponent -->
<g id="node44" class="node">
<title>ResumenOficinaApsComponent</title>
<polygon fill="#ffffb3" stroke="black" points="2508.96,-84.8 2311.04,-84.8 2311.04,-48.8 2508.96,-48.8 2508.96,-84.8"/>
<text text-anchor="middle" x="2410" y="-62.6" font-family="Times,serif" font-size="14.00">ResumenOficinaApsComponent</text>
</g>
<!-- ResumenOficinaApsComponent&#45;&gt;AppModule -->
<g id="edge44" class="edge">
<title>ResumenOficinaApsComponent&#45;&gt;AppModule</title>
<path fill="none" stroke="black" d="M2410,-85.02C2410,-105.17 2410,-134.8 2410,-134.8 2410,-134.8 5305.34,-134.8 5305.34,-134.8"/>
<polygon fill="black" stroke="black" points="5305.34,-138.3 5315.34,-134.8 5305.34,-131.3 5305.34,-138.3"/>
</g>
<!-- ResumenProfesorExternoComponent -->
<g id="node45" class="node">
<title>ResumenProfesorExternoComponent</title>
<polygon fill="#ffffb3" stroke="black" points="2292.68,-84.8 2067.32,-84.8 2067.32,-48.8 2292.68,-48.8 2292.68,-84.8"/>
<text text-anchor="middle" x="2180" y="-62.6" font-family="Times,serif" font-size="14.00">ResumenProfesorExternoComponent</text>
</g>
<!-- ResumenProfesorExternoComponent&#45;&gt;AppModule -->
<g id="edge45" class="edge">
<title>ResumenProfesorExternoComponent&#45;&gt;AppModule</title>
<path fill="none" stroke="black" d="M2180,-84.93C2180,-105.37 2180,-135.8 2180,-135.8 2180,-135.8 5305.08,-135.8 5305.08,-135.8"/>
<polygon fill="black" stroke="black" points="5305.08,-139.3 5315.08,-135.8 5305.08,-132.3 5305.08,-139.3"/>
</g>
<!-- ResumenProfesorInternoComponent -->
<g id="node46" class="node">
<title>ResumenProfesorInternoComponent</title>
<polygon fill="#ffffb3" stroke="black" points="2049.78,-84.8 1828.22,-84.8 1828.22,-48.8 2049.78,-48.8 2049.78,-84.8"/>
<text text-anchor="middle" x="1939" y="-62.6" font-family="Times,serif" font-size="14.00">ResumenProfesorInternoComponent</text>
</g>
<!-- ResumenProfesorInternoComponent&#45;&gt;AppModule -->
<g id="edge46" class="edge">
<title>ResumenProfesorInternoComponent&#45;&gt;AppModule</title>
<path fill="none" stroke="black" d="M1939,-85.08C1939,-106.12 1939,-137.8 1939,-137.8 1939,-137.8 5305.32,-137.8 5305.32,-137.8"/>
<polygon fill="black" stroke="black" points="5305.32,-141.3 5315.32,-137.8 5305.32,-134.3 5305.32,-141.3"/>
</g>
<!-- ResumenSocioComunitarioComponent -->
<g id="node47" class="node">
<title>ResumenSocioComunitarioComponent</title>
<polygon fill="#ffffb3" stroke="black" points="1810.1,-84.8 1573.9,-84.8 1573.9,-48.8 1810.1,-48.8 1810.1,-84.8"/>
<text text-anchor="middle" x="1692" y="-62.6" font-family="Times,serif" font-size="14.00">ResumenSocioComunitarioComponent</text>
</g>
<!-- ResumenSocioComunitarioComponent&#45;&gt;AppModule -->
<g id="edge47" class="edge">
<title>ResumenSocioComunitarioComponent&#45;&gt;AppModule</title>
<path fill="none" stroke="black" d="M1692,-84.97C1692,-106.3 1692,-138.8 1692,-138.8 1692,-138.8 5305.21,-138.8 5305.21,-138.8"/>
<polygon fill="black" stroke="black" points="5305.21,-142.3 5315.21,-138.8 5305.21,-135.3 5305.21,-142.3"/>
</g>
<!-- SafeHtmlPipe -->
<g id="node48" class="node">
<title>SafeHtmlPipe</title>
<polygon fill="#ffffb3" stroke="black" points="1556.04,-84.8 1461.96,-84.8 1461.96,-48.8 1556.04,-48.8 1556.04,-84.8"/>
<text text-anchor="middle" x="1509" y="-62.6" font-family="Times,serif" font-size="14.00">SafeHtmlPipe</text>
</g>
<!-- SafeHtmlPipe&#45;&gt;AppModule -->
<g id="edge48" class="edge">
<title>SafeHtmlPipe&#45;&gt;AppModule</title>
<path fill="none" stroke="black" d="M1509,-84.84C1509,-106.46 1509,-139.8 1509,-139.8 1509,-139.8 5305.1,-139.8 5305.1,-139.8"/>
<polygon fill="black" stroke="black" points="5305.1,-143.3 5315.1,-139.8 5305.1,-136.3 5305.1,-143.3"/>
</g>
<!-- ServicioOfertadoComponent -->
<g id="node49" class="node">
<title>ServicioOfertadoComponent</title>
<polygon fill="#ffffb3" stroke="black" points="1443.73,-84.8 1266.27,-84.8 1266.27,-48.8 1443.73,-48.8 1443.73,-84.8"/>
<text text-anchor="middle" x="1355" y="-62.6" font-family="Times,serif" font-size="14.00">ServicioOfertadoComponent</text>
</g>
<!-- ServicioOfertadoComponent&#45;&gt;AppModule -->
<g id="edge49" class="edge">
<title>ServicioOfertadoComponent&#45;&gt;AppModule</title>
<path fill="none" stroke="black" d="M1355,-85.09C1355,-107.01 1355,-140.8 1355,-140.8 1355,-140.8 5305.1,-140.8 5305.1,-140.8"/>
<polygon fill="black" stroke="black" points="5305.1,-144.3 5315.1,-140.8 5305.1,-137.3 5305.1,-144.3"/>
</g>
<!-- SobreApsUnedContactaComponent -->
<g id="node50" class="node">
<title>SobreApsUnedContactaComponent</title>
<polygon fill="#ffffb3" stroke="black" points="1248.12,-84.8 1031.88,-84.8 1031.88,-48.8 1248.12,-48.8 1248.12,-84.8"/>
<text text-anchor="middle" x="1140" y="-62.6" font-family="Times,serif" font-size="14.00">SobreApsUnedContactaComponent</text>
</g>
<!-- SobreApsUnedContactaComponent&#45;&gt;AppModule -->
<g id="edge50" class="edge">
<title>SobreApsUnedContactaComponent&#45;&gt;AppModule</title>
<path fill="none" stroke="black" d="M1140,-84.81C1140,-107.29 1140,-142.8 1140,-142.8 1140,-142.8 5305.26,-142.8 5305.26,-142.8"/>
<polygon fill="black" stroke="black" points="5305.26,-146.3 5315.26,-142.8 5305.26,-139.3 5305.26,-146.3"/>
</g>
<!-- SobreApsUnedHistoriaComponent -->
<g id="node51" class="node">
<title>SobreApsUnedHistoriaComponent</title>
<polygon fill="#ffffb3" stroke="black" points="1013.96,-84.8 802.04,-84.8 802.04,-48.8 1013.96,-48.8 1013.96,-84.8"/>
<text text-anchor="middle" x="908" y="-62.6" font-family="Times,serif" font-size="14.00">SobreApsUnedHistoriaComponent</text>
</g>
<!-- SobreApsUnedHistoriaComponent&#45;&gt;AppModule -->
<g id="edge51" class="edge">
<title>SobreApsUnedHistoriaComponent&#45;&gt;AppModule</title>
<path fill="none" stroke="black" d="M908,-85.05C908,-107.82 908,-143.8 908,-143.8 908,-143.8 5305.1,-143.8 5305.1,-143.8"/>
<polygon fill="black" stroke="black" points="5305.1,-147.3 5315.1,-143.8 5305.1,-140.3 5305.1,-147.3"/>
</g>
<!-- SobreApsUnedQuienesSomosComponent -->
<g id="node52" class="node">
<title>SobreApsUnedQuienesSomosComponent</title>
<polygon fill="#ffffb3" stroke="black" points="784.35,-84.8 533.65,-84.8 533.65,-48.8 784.35,-48.8 784.35,-84.8"/>
<text text-anchor="middle" x="659" y="-62.6" font-family="Times,serif" font-size="14.00">SobreApsUnedQuienesSomosComponent</text>
</g>
<!-- SobreApsUnedQuienesSomosComponent&#45;&gt;AppModule -->
<g id="edge52" class="edge">
<title>SobreApsUnedQuienesSomosComponent&#45;&gt;AppModule</title>
<path fill="none" stroke="black" d="M659,-84.89C659,-107.93 659,-144.8 659,-144.8 659,-144.8 5305.31,-144.8 5305.31,-144.8"/>
<polygon fill="black" stroke="black" points="5305.31,-148.3 5315.31,-144.8 5305.31,-141.3 5305.31,-148.3"/>
</g>
<!-- SugerirOfertaComponent -->
<g id="node53" class="node">
<title>SugerirOfertaComponent</title>
<polygon fill="#ffffb3" stroke="black" points="515.29,-84.8 356.71,-84.8 356.71,-48.8 515.29,-48.8 515.29,-84.8"/>
<text text-anchor="middle" x="436" y="-62.6" font-family="Times,serif" font-size="14.00">SugerirOfertaComponent</text>
</g>
<!-- SugerirOfertaComponent&#45;&gt;AppModule -->
<g id="edge53" class="edge">
<title>SugerirOfertaComponent&#45;&gt;AppModule</title>
<path fill="none" stroke="black" d="M436,-84.95C436,-108.56 436,-146.8 436,-146.8 436,-146.8 5305.2,-146.8 5305.2,-146.8"/>
<polygon fill="black" stroke="black" points="5305.2,-150.3 5315.2,-146.8 5305.2,-143.3 5305.2,-150.3"/>
</g>
<!-- crearDemandaComponent -->
<g id="node54" class="node">
<title>crearDemandaComponent</title>
<polygon fill="#ffffb3" stroke="black" points="338.44,-84.8 175.56,-84.8 175.56,-48.8 338.44,-48.8 338.44,-84.8"/>
<text text-anchor="middle" x="257" y="-62.6" font-family="Times,serif" font-size="14.00">crearDemandaComponent</text>
</g>
<!-- crearDemandaComponent&#45;&gt;AppModule -->
<g id="edge54" class="edge">
<title>crearDemandaComponent&#45;&gt;AppModule</title>
<path fill="none" stroke="black" d="M257,-85.18C257,-109.08 257,-147.8 257,-147.8 257,-147.8 5305.2,-147.8 5305.2,-147.8"/>
<polygon fill="black" stroke="black" points="5305.2,-151.3 5315.2,-147.8 5305.2,-144.3 5305.2,-151.3"/>
</g>
<!-- AppComponent  -->
<g id="node57" class="node">
<title>AppComponent </title>
<polygon fill="#80b1d3" stroke="black" points="5411.44,-214.8 5302.56,-214.8 5302.56,-178.8 5411.44,-178.8 5411.44,-214.8"/>
<text text-anchor="middle" x="5357" y="-192.6" font-family="Times,serif" font-size="14.00">AppComponent </text>
</g>
<!-- AppModule&#45;&gt;AppComponent  -->
<g id="edge56" class="edge">
<title>AppModule&#45;&gt;AppComponent </title>
<path fill="none" stroke="black" stroke-dasharray="1,5" d="M5357,-149.91C5357,-149.91 5357,-168.79 5357,-168.79"/>
<polygon fill="black" stroke="black" points="5353.5,-168.79 5357,-178.79 5360.5,-168.79 5353.5,-168.79"/>
</g>
<!-- AppRoutingModule -->
<g id="node56" class="node">
<title>AppRoutingModule</title>
<polygon fill="#8dd3c7" stroke="black" points="152.27,-84.8 149.27,-88.8 128.27,-88.8 125.27,-84.8 23.73,-84.8 23.73,-48.8 152.27,-48.8 152.27,-84.8"/>
<text text-anchor="middle" x="88" y="-62.6" font-family="Times,serif" font-size="14.00">AppRoutingModule</text>
</g>
<!-- AppRoutingModule&#45;&gt;AppModule -->
<g id="edge55" class="edge">
<title>AppRoutingModule&#45;&gt;AppModule</title>
<path fill="none" stroke="black" d="M88,-85C88,-109.16 88,-148.8 88,-148.8 88,-148.8 5304.97,-148.8 5304.97,-148.8"/>
<polygon fill="black" stroke="black" points="5304.97,-152.3 5314.97,-148.8 5304.97,-145.3 5304.97,-152.3"/>
</g>
</g>
</svg>
